if (_typeface_js && _typeface_js.loadFace) _typeface_js.loadFace({"glyphs":{"¦":{"x_min":278,"x_max":418,"ha":694,"o":"m 278 277 l 418 277 l 418 -237 l 278 -237 l 278 277 m 278 971 l 418 971 l 418 457 l 278 457 l 278 971 "},"Ž":{"x_min":25,"x_max":818,"ha":835,"o":"m 25 0 l 25 173 l 568 818 l 35 818 l 35 999 l 818 999 l 818 825 l 273 180 l 805 180 l 805 0 l 25 0 m 205 1337 l 299 1337 l 418 1188 l 536 1337 l 632 1337 l 499 1086 l 337 1086 l 205 1337 "},"Á":{"x_min":0,"x_max":953,"ha":953,"o":"m 474 799 l 336 374 l 613 374 l 474 799 m 355 999 l 592 999 l 953 0 l 737 0 l 669 206 l 282 206 l 216 0 l 0 0 l 355 999 m 675 1337 l 462 1086 l 366 1086 l 499 1337 l 675 1337 "},"Î":{"x_min":0,"x_max":427,"ha":427,"o":"m 110 0 l 110 999 l 315 999 l 315 0 l 110 0 m 0 1086 l 132 1337 l 294 1337 l 427 1086 l 331 1086 l 213 1233 l 94 1086 l 0 1086 "},"e":{"x_min":49,"x_max":748,"ha":791,"o":"m 541 224 l 738 224 q 617 41 708 107 q 396 -25 526 -25 q 142 82 236 -25 q 49 373 49 190 q 141 659 49 555 q 393 764 233 764 q 655 661 563 764 q 748 368 748 558 q 747 337 748 347 q 746 317 747 326 l 253 317 q 295 186 257 230 q 405 142 333 142 q 489 161 456 142 q 541 224 521 181 m 253 447 l 544 447 q 504 560 541 521 q 397 599 467 599 q 296 559 333 599 q 253 447 259 520 "},"»":{"x_min":49,"x_max":568,"ha":621,"o":"m 568 455 l 568 282 l 340 86 l 340 247 l 479 369 l 340 489 l 340 652 l 568 455 m 277 455 l 277 282 l 49 86 l 49 247 l 187 369 l 49 489 l 49 652 l 277 455 "},"∆":{"x_min":0,"x_max":968,"ha":968,"o":"m 483 752 l 262 174 l 705 174 l 483 752 m 381 999 l 586 999 l 968 0 l 0 0 l 381 999 "},"ò":{"x_min":49,"x_max":796,"ha":844,"o":"m 249 369 q 294 199 249 259 q 422 140 339 140 q 549 199 504 140 q 595 369 595 259 q 550 538 595 479 q 422 598 505 598 q 294 538 339 598 q 249 369 249 479 m 49 369 q 148 658 49 553 q 422 764 248 764 q 696 658 596 764 q 796 369 796 553 q 696 80 796 185 q 422 -25 596 -25 q 148 80 248 -25 q 49 369 49 185 m 224 1076 l 399 1076 l 533 825 l 436 825 l 224 1076 "},"^":{"x_min":282,"x_max":1105,"ha":1389,"o":"m 608 990 l 778 990 l 1105 610 l 945 610 l 694 861 l 441 610 l 282 610 l 608 990 "},"«":{"x_min":49,"x_max":568,"ha":621,"o":"m 340 282 l 340 455 l 568 652 l 568 490 l 428 369 l 568 248 l 568 86 l 340 282 m 49 282 l 49 455 l 277 652 l 277 490 l 137 369 l 277 248 l 277 86 l 49 282 "},"∙":{"x_min":92,"x_max":303,"ha":395,"o":"m 92 476 q 122 551 92 520 q 197 582 153 582 q 272 551 241 582 q 303 476 303 520 q 272 401 303 432 q 197 371 241 371 q 122 401 153 371 q 92 476 92 431 "},"í":{"x_min":79,"x_max":388,"ha":378,"o":"m 90 0 l 90 737 l 287 737 l 287 0 l 90 0 m 388 1076 l 175 825 l 79 825 l 212 1076 l 388 1076 "},"ˆ":{"x_min":134,"x_max":561,"ha":694,"o":"m 134 825 l 266 1076 l 428 1076 l 561 825 l 465 825 l 347 972 l 228 825 l 134 825 "},"µ":{"x_min":-43,"x_max":803,"ha":847,"o":"m 139 741 l 335 741 l 283 445 q 267 342 273 391 q 262 263 262 294 q 290 169 262 200 q 377 139 319 139 q 483 194 445 139 q 545 392 520 250 l 607 741 l 803 741 l 672 0 l 490 0 l 502 79 q 439 2 474 26 q 356 -22 404 -22 q 276 -2 311 -22 q 212 59 240 17 l 151 -297 l -43 -297 l 139 741 "},"č":{"x_min":49,"x_max":726,"ha":765,"o":"m 531 278 l 726 278 q 623 56 713 137 q 391 -25 533 -25 q 140 79 231 -25 q 49 369 49 184 q 142 659 49 554 q 398 764 235 764 q 628 687 541 764 q 725 476 714 611 l 529 476 q 487 566 520 535 q 399 598 454 598 q 290 540 326 598 q 254 367 254 482 q 291 203 254 260 q 399 146 329 146 q 487 179 454 146 q 531 278 520 212 m 184 1076 l 278 1076 l 397 927 l 515 1076 l 611 1076 l 478 825 l 316 825 l 184 1076 "},"’":{"x_min":86,"x_max":275,"ha":361,"o":"m 86 819 l 86 999 l 275 999 l 275 821 q 222 678 275 736 q 86 617 169 621 l 86 687 q 162 729 137 699 q 187 810 187 760 l 187 819 l 86 819 "},"-":{"x_min":41,"x_max":422,"ha":464,"o":"m 41 277 l 41 463 l 422 463 l 422 277 l 41 277 "},"Q":{"x_min":60,"x_max":1038.359375,"ha":1096,"o":"m 668 177 l 563 280 l 675 397 l 784 291 q 817 384 805 332 q 829 498 829 436 q 755 754 829 663 q 548 846 681 846 q 343 755 416 846 q 270 498 270 664 q 343 242 270 333 q 548 151 416 151 q 612 157 582 151 q 668 177 642 164 m 813 41 q 694 -10 762 7 q 548 -28 627 -28 q 192 114 324 -28 q 60 498 60 256 q 191 882 60 740 q 547 1025 323 1025 q 904 882 771 1025 q 1037 498 1037 740 q 1009 304 1037 392 q 929 151 982 216 l 1038 47 l 927 -69 l 813 41 "},"M":{"x_min":103,"x_max":1106,"ha":1211,"o":"m 103 0 l 103 999 l 406 999 l 605 238 l 800 999 l 1106 999 l 1106 0 l 913 0 l 913 805 l 711 0 l 501 0 l 296 805 l 296 0 l 103 0 "},"œ":{"x_min":50,"x_max":1272,"ha":1321,"o":"m 771 448 l 1072 448 q 1030 566 1069 524 q 919 609 990 609 q 813 564 854 609 q 771 448 772 520 m 245 375 q 290 199 245 262 q 416 135 336 135 q 551 197 503 135 q 599 376 599 260 q 552 545 599 484 q 423 606 505 606 q 291 546 337 606 q 245 375 245 486 m 674 83 q 565 1 629 28 q 415 -25 501 -25 q 146 80 242 -25 q 50 375 50 185 q 148 660 50 557 q 417 764 246 764 q 573 736 507 764 q 683 655 639 709 q 785 737 724 711 q 934 764 846 764 q 1183 660 1095 764 q 1272 368 1272 556 q 1271 337 1272 347 q 1269 317 1271 326 l 771 317 q 810 185 771 232 q 920 138 850 138 q 1010 158 973 138 q 1066 220 1046 178 l 1262 220 q 1145 42 1241 110 q 916 -25 1050 -25 q 779 1 838 -25 q 674 83 721 27 "},"{":{"x_min":107,"x_max":599,"ha":694,"o":"m 599 1002 l 599 860 q 581 860 592 860 q 567 861 571 861 q 474 835 498 861 q 450 725 450 809 l 450 562 q 419 420 450 462 q 309 359 389 377 q 419 300 389 341 q 450 158 450 258 l 450 -4 q 473 -113 450 -87 q 567 -139 497 -139 q 581 -138 571 -139 q 599 -138 592 -138 l 599 -280 q 572 -280 589 -280 q 547 -281 555 -281 q 434 -273 479 -281 q 356 -248 388 -265 q 301 -186 317 -225 q 286 -50 286 -147 l 286 119 q 251 251 286 212 q 134 290 216 290 q 121 289 130 290 q 107 289 111 289 l 107 431 q 121 430 111 431 q 134 429 130 429 q 251 468 216 429 q 286 601 286 508 l 286 771 q 301 907 286 868 q 356 970 317 947 q 434 995 388 987 q 547 1003 479 1003 q 572 1002 555 1003 q 599 1002 589 1002 "},"¼":{"x_min":69,"x_max":1195,"ha":1225,"o":"m 1008 201 l 1008 433 l 842 201 l 1008 201 m 1006 0 l 1006 118 l 747 118 l 747 212 l 973 528 l 1125 528 l 1125 204 l 1195 204 l 1195 118 l 1125 118 l 1125 0 l 1006 0 m 261 -28 l 850 985 l 962 985 l 370 -28 l 261 -28 m 215 415 l 215 787 l 69 787 l 69 864 l 79 864 q 195 885 159 864 q 238 958 231 907 l 336 958 l 336 415 l 215 415 "},"#":{"x_min":31,"x_max":1038,"ha":1068,"o":"m 481 575 l 421 409 l 591 409 l 650 575 l 481 575 m 481 993 l 631 993 l 532 711 l 696 711 l 796 993 l 946 993 l 846 711 l 1038 711 l 987 575 l 797 575 l 740 411 l 937 411 l 889 275 l 692 275 l 591 -7 l 441 -7 l 542 275 l 376 275 l 275 -7 l 126 -7 l 225 275 l 31 275 l 82 411 l 273 411 l 332 575 l 129 575 l 179 711 l 380 711 l 481 993 "},"Ê":{"x_min":103,"x_max":853,"ha":907,"o":"m 103 0 l 103 999 l 828 999 l 828 825 l 306 825 l 306 613 l 783 613 l 783 442 l 306 442 l 306 184 l 853 184 l 853 0 l 103 0 m 253 1086 l 385 1337 l 547 1337 l 680 1086 l 584 1086 l 466 1233 l 347 1086 l 253 1086 "},")":{"x_min":16,"x_max":401,"ha":514,"o":"m 16 999 l 159 999 q 339 673 278 837 q 401 354 401 510 q 339 34 401 198 q 159 -290 278 -129 l 16 -290 q 155 22 109 -136 q 201 354 201 181 q 155 685 201 527 q 16 999 109 844 "},"Å":{"x_min":0,"x_max":953,"ha":953,"o":"m 474 1244 q 418 1219 441 1244 q 396 1162 396 1195 q 418 1106 396 1129 q 474 1083 441 1083 q 532 1106 508 1083 q 556 1162 556 1129 q 532 1219 556 1195 q 474 1244 508 1244 m 474 1337 q 598 1286 547 1337 q 649 1163 649 1236 q 598 1040 649 1090 q 474 990 547 990 q 351 1040 401 990 q 302 1163 302 1090 q 351 1286 302 1236 q 474 1337 401 1337 m 344 958 l 604 958 l 953 0 l 736 0 l 668 206 l 281 206 l 216 0 l 0 0 l 344 958 m 474 798 l 336 374 l 613 374 l 474 798 "},"¸":{"x_min":192,"x_max":551,"ha":694,"o":"m 192 -297 l 192 -209 q 290 -231 246 -224 q 365 -239 334 -239 q 416 -227 400 -239 q 433 -189 433 -215 q 413 -152 433 -163 q 350 -142 394 -142 q 326 -142 335 -142 q 312 -143 318 -142 l 312 0 l 381 0 l 381 -61 l 391 -61 q 510 -93 470 -61 q 551 -190 551 -126 q 506 -292 551 -258 q 372 -326 461 -326 q 291 -318 337 -326 q 192 -297 244 -311 "},"a":{"x_min":47,"x_max":735,"ha":781,"o":"m 508 91 q 410 4 471 34 q 270 -26 350 -26 q 105 35 163 -26 q 47 208 47 96 q 104 368 47 313 q 295 443 162 423 q 376 454 326 448 q 502 526 502 470 q 474 590 502 571 q 381 610 446 610 q 289 586 321 610 q 257 518 257 562 l 257 508 l 73 508 l 73 521 q 153 699 73 634 q 374 764 233 764 q 611 710 529 764 q 694 555 694 656 l 694 136 q 703 67 694 90 q 735 33 712 44 l 735 0 l 530 0 q 514 42 519 19 q 508 91 509 65 m 505 363 q 394 327 456 340 q 329 313 331 313 q 256 275 277 298 q 236 213 236 253 q 262 149 236 173 q 333 125 288 125 q 459 170 413 125 q 505 293 505 215 l 505 363 "},"=":{"x_min":172,"x_max":984,"ha":1157,"o":"m 172 336 l 984 336 l 984 201 l 172 201 l 172 336 m 172 628 l 984 628 l 984 493 l 172 493 l 172 628 "},"˚":{"x_min":168,"x_max":529,"ha":694,"o":"m 265 977 q 288 917 265 941 q 347 894 311 894 q 407 918 382 894 q 432 977 432 942 q 406 1036 432 1011 q 347 1061 381 1061 q 288 1036 311 1061 q 265 977 265 1012 m 168 977 q 219 1105 168 1052 q 347 1158 271 1158 q 476 1105 423 1158 q 529 977 529 1052 q 476 849 529 901 q 347 797 423 797 q 219 848 271 797 q 168 977 168 900 "},"ú":{"x_min":83,"x_max":743,"ha":829,"o":"m 743 737 l 743 0 l 550 0 l 550 87 q 451 6 507 33 q 326 -20 395 -20 q 143 43 204 -20 q 83 233 83 107 l 83 737 l 280 737 l 280 290 q 306 178 280 212 q 394 145 333 145 q 504 186 463 145 q 546 300 546 228 l 546 737 l 743 737 m 614 1076 l 401 825 l 305 825 l 438 1076 l 614 1076 "},"¯":{"x_min":153,"x_max":542,"ha":694,"o":"m 153 896 l 153 1002 l 542 1002 l 542 896 l 153 896 "},"Z":{"x_min":25,"x_max":818,"ha":835,"o":"m 25 0 l 25 173 l 568 818 l 35 818 l 35 999 l 818 999 l 818 825 l 273 180 l 805 180 l 805 0 l 25 0 "},"u":{"x_min":83,"x_max":743,"ha":829,"o":"m 743 737 l 743 0 l 550 0 l 550 87 q 451 6 507 33 q 326 -20 395 -20 q 143 43 204 -20 q 83 233 83 107 l 83 737 l 280 737 l 280 290 q 306 178 280 212 q 394 145 333 145 q 504 186 463 145 q 546 300 546 228 l 546 737 l 743 737 "},"k":{"x_min":90,"x_max":770,"ha":770,"o":"m 90 0 l 90 999 l 282 999 l 282 474 l 516 737 l 754 737 l 496 463 l 770 0 l 532 0 l 356 313 l 282 233 l 282 0 l 90 0 "},"Ù":{"x_min":97,"x_max":897,"ha":996,"o":"m 97 1002 l 305 1002 l 305 374 q 351 205 305 258 q 497 152 397 152 q 645 204 599 152 q 692 374 692 257 l 692 1002 l 897 1002 l 897 352 q 794 70 897 168 q 498 -28 691 -28 q 200 69 303 -28 q 97 352 97 167 l 97 1002 m 300 1337 l 475 1337 l 609 1086 l 512 1086 l 300 1337 "},"¢":{"x_min":41,"x_max":721,"ha":787,"o":"m 420 600 q 400 602 407 601 q 386 603 392 603 q 277 543 314 603 q 240 367 240 483 q 255 251 240 300 q 299 172 270 202 l 420 600 m 201 -166 l 247 0 q 93 135 145 41 q 41 368 41 229 q 134 658 41 553 q 389 764 227 764 q 425 762 407 764 q 460 758 443 761 l 491 871 l 565 871 l 528 742 q 662 648 614 715 q 718 476 710 580 l 527 476 q 511 534 523 509 q 477 576 499 558 l 356 143 q 360 143 357 143 q 391 141 380 141 q 484 174 451 141 q 530 278 518 207 l 721 278 q 621 55 710 137 q 391 -26 532 -26 q 354 -24 373 -26 q 315 -20 335 -23 l 275 -166 l 201 -166 "},"Ş":{"x_min":57,"x_max":871,"ha":926,"o":"m 57 308 l 260 308 q 327 187 272 226 q 487 148 383 148 q 622 179 577 148 q 668 273 668 211 q 623 356 668 327 q 401 423 578 386 q 140 531 208 465 q 72 724 72 597 q 171 948 72 870 q 457 1026 270 1026 q 730 942 631 1026 q 835 710 829 859 l 638 710 q 582 819 632 781 q 439 858 531 858 q 315 826 359 858 q 271 736 271 794 q 438 619 271 657 q 512 601 485 608 q 804 480 738 545 q 871 294 871 416 q 771 66 871 152 q 506 -22 672 -19 l 505 -61 l 515 -61 q 634 -93 594 -61 q 675 -190 675 -126 q 630 -291 675 -256 q 502 -326 586 -326 q 415 -318 463 -326 q 315 -297 368 -311 l 315 -210 q 414 -231 369 -224 q 489 -239 458 -239 q 540 -227 524 -239 q 557 -189 557 -215 q 539 -153 557 -164 q 479 -143 521 -143 l 451 -143 l 436 -143 l 436 -22 l 429 -22 q 163 67 263 -22 q 57 308 63 156 "},"é":{"x_min":49,"x_max":748,"ha":791,"o":"m 541 224 l 738 224 q 617 41 708 107 q 396 -25 526 -25 q 142 82 236 -25 q 49 373 49 190 q 141 659 49 555 q 393 764 233 764 q 655 661 563 764 q 748 368 748 558 q 747 337 748 347 q 746 317 747 326 l 253 317 q 295 186 257 230 q 405 142 333 142 q 489 161 456 142 q 541 224 521 181 m 253 447 l 544 447 q 504 560 541 521 q 397 599 467 599 q 296 559 333 599 q 253 447 259 520 m 595 1076 l 382 825 l 286 825 l 419 1076 l 595 1076 "},"B":{"x_min":103,"x_max":922,"ha":978,"o":"m 300 180 l 542 180 q 668 211 629 180 q 708 309 708 242 q 669 411 708 380 q 541 442 630 442 l 300 442 l 300 180 m 300 613 l 533 613 q 644 638 609 613 q 680 721 680 664 q 645 800 680 775 q 532 825 611 825 l 300 825 l 300 613 m 103 0 l 103 999 l 573 999 q 806 934 726 999 q 887 746 887 869 q 857 619 887 670 q 768 541 827 568 q 883 451 845 509 q 922 304 922 392 q 827 79 922 158 q 557 0 732 0 l 103 0 "},"…":{"x_min":129,"x_max":1259,"ha":1389,"o":"m 129 0 l 129 204 l 333 204 l 333 0 l 129 0 m 591 0 l 591 204 l 795 204 l 795 0 l 591 0 m 1055 0 l 1055 204 l 1259 204 l 1259 0 l 1055 0 "},"H":{"x_min":103,"x_max":929,"ha":1032,"o":"m 103 0 l 103 999 l 310 999 l 310 627 l 722 627 l 722 999 l 929 999 l 929 0 l 722 0 l 722 443 l 310 443 l 310 0 l 103 0 "},"î":{"x_min":-24,"x_max":403,"ha":378,"o":"m 90 0 l 90 737 l 287 737 l 287 0 l 90 0 m -24 825 l 108 1076 l 270 1076 l 403 825 l 307 825 l 189 972 l 70 825 l -24 825 "},"−":{"x_min":172,"x_max":984,"ha":1157,"o":"m 172 484 l 984 484 l 984 346 l 172 346 l 172 484 "},"≠":{"x_min":172,"x_max":984,"ha":1157,"o":"m 811 836 l 912 756 l 807 626 l 984 626 l 984 496 l 720 496 l 590 334 l 984 334 l 984 203 l 504 203 l 338 -6 l 238 74 l 342 203 l 172 203 l 172 334 l 427 334 l 556 496 l 172 496 l 172 626 l 643 626 l 811 836 "},"¥":{"x_min":-11,"x_max":837,"ha":833,"o":"m 526 0 l 330 0 l 330 350 l 316 374 l 12 374 l 12 451 l 271 451 l 222 537 l 12 537 l 12 613 l 177 613 l -11 943 l 209 943 l 427 514 l 630 943 l 837 943 l 663 613 l 821 613 l 821 537 l 623 537 l 577 451 l 821 451 l 821 374 l 537 374 l 526 350 l 526 0 "},"U":{"x_min":97,"x_max":897,"ha":996,"o":"m 97 1002 l 305 1002 l 305 374 q 351 205 305 258 q 497 152 397 152 q 645 204 599 152 q 692 374 692 257 l 692 1002 l 897 1002 l 897 352 q 794 70 897 168 q 498 -28 691 -28 q 200 69 303 -28 q 97 352 97 167 l 97 1002 "},"Ñ":{"x_min":103,"x_max":926,"ha":1029,"o":"m 103 0 l 103 999 l 317 999 l 723 312 l 723 999 l 926 999 l 926 0 l 713 0 l 306 686 l 306 0 l 103 0 m 736 1304 q 683 1178 718 1218 q 594 1138 649 1138 q 568 1139 580 1138 q 544 1145 556 1141 l 485 1163 q 461 1169 472 1167 q 440 1171 450 1171 q 402 1158 417 1171 q 380 1118 388 1146 l 306 1118 q 356 1239 322 1200 q 444 1278 390 1278 q 472 1275 458 1278 q 502 1268 487 1273 l 565 1250 q 583 1246 573 1247 q 603 1245 592 1245 q 639 1259 624 1245 q 661 1304 653 1274 l 736 1304 "},"F":{"x_min":103,"x_max":800,"ha":831,"o":"m 103 0 l 103 999 l 800 999 l 800 825 l 306 825 l 306 599 l 739 599 l 739 425 l 306 425 l 306 0 l 103 0 "},"*":{"x_min":53,"x_max":641,"ha":694,"o":"m 347 603 l 228 435 l 112 515 l 243 678 l 53 731 l 97 869 l 280 804 l 280 999 l 414 999 l 414 804 l 595 868 l 641 730 l 451 678 l 580 516 l 462 432 l 347 603 "},"†":{"x_min":40,"x_max":655,"ha":694,"o":"m 267 -147 l 267 578 l 40 578 l 40 706 l 267 706 l 267 999 l 428 999 l 428 706 l 655 706 l 655 578 l 428 578 l 428 -147 l 267 -147 "},"∕":{"x_min":-235,"x_max":466,"ha":232,"o":"m -235 -28 l 354 985 l 466 985 l -125 -28 l -235 -28 "},"°":{"x_min":24,"x_max":435,"ha":457,"o":"m 230 906 q 145 871 180 906 q 110 787 110 836 q 144 702 110 737 q 230 668 179 668 q 314 703 279 668 q 349 787 349 738 q 314 871 349 836 q 230 906 279 906 m 229 993 q 374 932 314 993 q 435 786 435 871 q 374 641 435 701 q 228 581 314 581 q 83 640 142 581 q 24 786 24 700 q 84 932 24 872 q 229 993 144 993 "},"å":{"x_min":47,"x_max":735,"ha":781,"o":"m 505 363 q 394 327 456 340 q 329 313 331 313 q 256 275 277 298 q 236 213 236 253 q 262 149 236 173 q 333 125 288 125 q 459 170 413 125 q 505 293 505 215 l 505 363 m 305 968 q 328 912 305 935 q 384 890 351 890 q 441 912 418 890 q 465 968 465 935 q 441 1026 465 1002 q 384 1050 417 1050 q 328 1026 351 1050 q 305 968 305 1002 m 211 970 q 261 1093 211 1043 q 384 1144 311 1144 q 507 1093 457 1144 q 558 970 558 1043 q 507 847 558 897 q 384 797 457 797 q 261 847 311 797 q 211 970 211 897 m 508 91 q 410 4 471 34 q 270 -26 350 -26 q 105 35 163 -26 q 47 208 47 96 q 105 368 47 313 q 297 443 163 423 q 377 454 327 448 q 502 526 502 470 q 474 590 502 571 q 381 610 446 610 q 289 586 321 610 q 257 518 257 562 l 257 508 l 73 508 l 73 521 q 153 699 73 634 q 374 764 233 764 q 611 710 529 764 q 694 555 694 656 l 694 136 q 703 67 694 90 q 735 33 712 44 l 735 0 l 530 0 q 514 42 519 19 q 508 91 509 65 "},"0":{"x_min":43,"x_max":745,"ha":787,"o":"m 244 471 q 279 214 244 294 q 393 135 315 135 q 507 215 471 135 q 544 471 544 296 q 507 728 544 648 q 393 808 471 808 q 279 728 315 808 q 244 471 244 648 m 43 472 q 130 846 43 722 q 393 971 217 971 q 657 845 569 971 q 745 470 745 720 q 657 97 745 220 q 393 -26 570 -26 q 130 98 217 -26 q 43 472 43 222 "},"":{"x_min":77,"x_max":1021,"ha":1097,"o":"m 567 824 q 566 834 566 828 q 565 849 565 839 q 630 1005 565 934 q 790 1094 694 1077 q 791 1079 791 1087 q 791 1052 791 1070 q 721 893 791 963 q 583 823 651 823 l 578 823 q 573 824 576 823 q 567 824 570 824 m 1021 273 q 881 40 943 105 q 743 -24 820 -24 q 654 -1 709 -24 q 571 20 599 20 q 482 -1 540 20 q 396 -24 424 -24 q 309 5 353 -24 q 221 95 265 35 q 114 295 152 190 q 77 499 77 401 q 161 741 77 648 q 380 835 246 835 q 485 811 426 835 q 570 788 544 788 q 652 812 593 788 q 755 836 711 836 q 890 809 830 836 q 999 725 949 782 q 896 626 930 680 q 863 502 863 571 q 903 366 863 425 q 1021 273 944 307 "},"”":{"x_min":61,"x_max":548,"ha":611,"o":"m 359 819 l 359 999 l 548 999 l 548 821 q 495 678 548 736 q 359 617 442 621 l 359 687 q 435 729 410 699 q 461 808 461 759 l 461 819 l 359 819 m 61 819 l 61 999 l 250 999 l 250 821 q 197 678 250 736 q 61 617 144 621 l 61 687 q 137 729 112 699 q 163 810 163 760 l 163 819 l 61 819 "},"ö":{"x_min":49,"x_max":796,"ha":844,"o":"m 249 369 q 294 199 249 259 q 422 140 339 140 q 549 199 504 140 q 595 369 595 259 q 550 538 595 479 q 422 598 505 598 q 294 538 339 598 q 249 369 249 479 m 49 369 q 148 658 49 553 q 422 764 248 764 q 696 658 596 764 q 796 369 796 553 q 696 80 796 185 q 422 -25 596 -25 q 148 80 248 -25 q 49 369 49 185 m 464 865 l 464 1032 l 617 1032 l 617 865 l 464 865 m 228 865 l 228 1032 l 381 1032 l 381 865 l 228 865 "},"Õ":{"x_min":60,"x_max":1037,"ha":1096,"o":"m 270 498 q 343 242 270 333 q 548 151 416 151 q 755 242 681 151 q 829 498 829 333 q 755 754 829 663 q 548 846 681 846 q 343 755 416 846 q 270 498 270 664 m 60 498 q 191 882 60 740 q 547 1025 323 1025 q 904 882 771 1025 q 1037 498 1037 740 q 904 114 1037 256 q 547 -28 771 -28 q 191 114 323 -28 q 60 498 60 256 m 763 1304 q 710 1178 745 1218 q 621 1138 676 1138 q 595 1139 607 1138 q 571 1145 583 1141 l 512 1163 q 488 1169 499 1167 q 467 1171 477 1171 q 429 1158 444 1171 q 407 1118 415 1146 l 333 1118 q 383 1239 349 1200 q 471 1278 417 1278 q 499 1275 485 1278 q 529 1268 514 1273 l 592 1250 q 610 1246 600 1247 q 630 1245 619 1245 q 666 1259 651 1245 q 688 1304 680 1274 l 763 1304 "},"ć":{"x_min":49,"x_max":726,"ha":765,"o":"m 531 278 l 726 278 q 623 56 713 137 q 391 -25 533 -25 q 140 79 231 -25 q 49 369 49 184 q 142 659 49 554 q 398 764 235 764 q 628 687 541 764 q 725 476 714 611 l 529 476 q 487 566 520 535 q 399 598 454 598 q 290 540 326 598 q 254 367 254 482 q 291 203 254 260 q 399 146 329 146 q 487 179 454 146 q 531 278 520 212 m 596 1076 l 383 825 l 287 825 l 420 1076 l 596 1076 "},"þ":{"x_min":90,"x_max":803,"ha":851,"o":"m 607 363 q 564 533 607 474 q 442 592 522 592 q 323 533 364 592 q 282 363 282 475 q 325 202 282 259 q 446 146 368 146 q 564 204 521 146 q 607 363 607 262 m 90 -296 l 90 999 l 282 999 l 282 640 q 375 732 322 702 q 497 762 427 762 q 718 654 633 762 q 803 372 803 547 q 718 85 803 195 q 499 -25 633 -25 q 373 4 429 -25 q 282 91 318 34 l 282 -296 l 90 -296 "},"]":{"x_min":35,"x_max":378,"ha":530,"o":"m 378 999 l 378 -296 l 35 -296 l 35 -152 l 195 -152 l 195 855 l 35 855 l 35 999 l 378 999 "},"8":{"x_min":45,"x_max":744,"ha":787,"o":"m 242 282 q 281 171 242 210 q 395 133 321 133 q 506 172 466 133 q 547 282 547 211 q 505 390 547 349 q 395 431 464 431 q 284 389 326 431 q 242 282 242 348 m 257 699 q 292 612 257 642 q 393 582 327 582 q 495 612 459 582 q 531 699 531 643 q 494 784 531 753 q 393 816 457 816 q 294 784 331 816 q 257 699 257 752 m 187 510 q 99 589 126 544 q 72 705 72 635 q 157 901 72 830 q 393 973 243 973 q 632 902 546 973 q 718 705 718 831 q 688 589 718 638 q 601 510 659 540 q 708 418 672 476 q 744 275 744 359 q 650 52 744 133 q 393 -28 557 -28 q 136 52 228 -28 q 45 275 45 132 q 79 415 45 358 q 187 510 113 472 "},"R":{"x_min":103,"x_max":927,"ha":991,"o":"m 308 563 l 549 563 q 665 594 628 563 q 703 695 703 626 q 666 793 703 759 q 559 827 630 827 l 308 827 l 308 563 m 103 0 l 103 999 l 587 999 q 829 929 750 999 q 908 715 908 859 q 869 563 908 624 q 759 480 831 502 q 852 409 825 456 q 884 261 879 361 l 888 143 q 888 139 888 141 q 927 30 890 49 l 927 0 l 701 0 q 684 51 690 21 q 677 125 679 82 l 675 230 q 640 356 671 323 q 526 389 608 389 l 308 389 l 308 0 l 103 0 "},"o":{"x_min":49,"x_max":796,"ha":844,"o":"m 249 369 q 294 199 249 259 q 422 140 339 140 q 549 199 504 140 q 595 369 595 259 q 550 538 595 479 q 422 598 505 598 q 294 538 339 598 q 249 369 249 479 m 49 369 q 148 658 49 553 q 422 764 248 764 q 696 658 596 764 q 796 369 796 553 q 696 80 796 185 q 422 -25 596 -25 q 148 80 248 -25 q 49 369 49 185 "},"5":{"x_min":36,"x_max":732,"ha":787,"o":"m 36 261 l 226 261 q 268 162 230 197 q 370 127 306 127 q 490 173 448 127 q 532 305 532 219 q 489 433 532 386 q 371 480 446 480 q 297 463 329 480 q 243 412 265 446 l 69 422 l 131 943 l 689 943 l 689 779 l 268 779 l 243 584 q 316 622 275 609 q 408 635 358 635 q 642 546 553 635 q 732 315 732 458 q 633 65 732 158 q 370 -28 535 -28 q 130 49 219 -28 q 36 261 41 126 "},"õ":{"x_min":49,"x_max":796,"ha":844,"o":"m 249 369 q 294 199 249 259 q 422 140 339 140 q 549 199 504 140 q 595 369 595 259 q 550 538 595 479 q 422 598 505 598 q 294 538 339 598 q 249 369 249 479 m 49 369 q 148 658 49 553 q 422 764 248 764 q 696 658 596 764 q 796 369 796 553 q 696 80 796 185 q 422 -25 596 -25 q 148 80 248 -25 q 49 369 49 185 m 637 1043 q 584 917 619 957 q 495 877 550 877 q 469 878 481 877 q 445 884 457 880 l 386 902 q 362 908 373 906 q 341 910 351 910 q 303 897 318 910 q 281 857 289 885 l 207 857 q 257 978 223 939 q 345 1017 291 1017 q 373 1014 359 1017 q 403 1007 388 1012 l 466 989 q 484 985 474 986 q 504 984 493 984 q 540 998 525 984 q 562 1043 554 1013 l 637 1043 "},",":{"x_min":94,"x_max":299,"ha":395,"o":"m 94 -235 l 94 -156 q 177 -105 150 -139 q 205 -17 205 -71 l 205 0 l 94 0 l 94 204 l 299 204 l 299 8 q 247 -154 299 -93 q 94 -235 195 -216 "},"d":{"x_min":50,"x_max":763,"ha":855,"o":"m 763 999 l 763 0 l 576 0 l 576 100 q 480 5 533 35 q 355 -25 426 -25 q 134 82 218 -25 q 50 365 50 190 q 134 651 50 541 q 352 762 218 762 q 479 732 423 762 q 572 645 535 702 l 572 999 l 763 999 m 247 373 q 289 203 247 262 q 410 145 331 145 q 530 203 489 145 q 572 373 572 261 q 528 534 572 477 q 406 591 485 591 q 289 533 332 591 q 247 373 247 475 "},"\"":{"x_min":53,"x_max":406,"ha":460,"o":"m 275 975 l 406 975 l 406 596 l 275 596 l 275 975 m 53 975 l 184 975 l 184 596 l 53 596 l 53 975 "},"˙":{"x_min":268,"x_max":428,"ha":694,"o":"m 268 861 l 268 1036 l 428 1036 l 428 861 l 268 861 "},"ê":{"x_min":49,"x_max":748,"ha":791,"o":"m 541 224 l 738 224 q 617 41 708 107 q 396 -25 526 -25 q 142 82 236 -25 q 49 373 49 190 q 141 659 49 555 q 393 764 233 764 q 655 661 563 764 q 748 368 748 558 q 747 337 748 347 q 746 317 747 326 l 253 317 q 295 186 257 230 q 405 142 333 142 q 489 161 456 142 q 541 224 521 181 m 253 447 l 544 447 q 504 560 541 521 q 397 599 467 599 q 296 559 333 599 q 253 447 259 520 m 183 825 l 315 1076 l 477 1076 l 610 825 l 514 825 l 396 972 l 277 825 l 183 825 "},"„":{"x_min":61,"x_max":548,"ha":611,"o":"m 359 0 l 359 179 l 548 179 l 548 4 q 495 -139 548 -81 q 359 -201 442 -196 l 359 -132 q 435 -88 410 -119 q 461 -8 461 -58 l 461 0 l 359 0 m 61 0 l 61 179 l 250 179 l 250 4 q 197 -139 250 -81 q 61 -201 144 -196 l 61 -132 q 137 -87 112 -118 q 163 -8 163 -56 l 163 0 l 61 0 "},"Â":{"x_min":0,"x_max":953,"ha":953,"o":"m 474 799 l 336 374 l 613 374 l 474 799 m 355 999 l 592 999 l 953 0 l 737 0 l 669 206 l 282 206 l 216 0 l 0 0 l 355 999 m 263 1086 l 395 1337 l 557 1337 l 690 1086 l 594 1086 l 476 1233 l 357 1086 l 263 1086 "},"Í":{"x_min":103,"x_max":412,"ha":427,"o":"m 110 0 l 110 999 l 315 999 l 315 0 l 110 0 m 412 1337 l 199 1086 l 103 1086 l 236 1337 l 412 1337 "},"´":{"x_min":237,"x_max":546,"ha":694,"o":"m 546 1076 l 333 825 l 237 825 l 370 1076 l 546 1076 "},"Ú":{"x_min":97,"x_max":897,"ha":996,"o":"m 97 1002 l 305 1002 l 305 374 q 351 205 305 258 q 497 152 397 152 q 645 204 599 152 q 692 374 692 257 l 692 1002 l 897 1002 l 897 352 q 794 70 897 168 q 498 -28 691 -28 q 200 69 303 -28 q 97 352 97 167 l 97 1002 m 697 1337 l 484 1086 l 388 1086 l 521 1337 l 697 1337 "},"Ý":{"x_min":-18,"x_max":879,"ha":864,"o":"m 550 0 l 345 0 l 345 372 l -18 999 l 233 999 l 447 568 l 644 999 l 879 999 l 550 372 l 550 0 m 631 1337 l 418 1086 l 322 1086 l 455 1337 l 631 1337 "},"Ω":{"x_min":37.046875,"x_max":1029.15625,"ha":1068,"o":"m 831 174 l 1029 174 l 1029 0 l 617 0 l 617 197 q 746 344 701 255 q 791 545 791 434 q 722 762 791 683 q 532 841 653 841 q 343 762 412 841 q 275 545 275 683 q 319 344 275 434 q 449 197 364 255 l 449 0 l 37 0 l 37 174 l 234 174 q 107 350 148 255 q 66 555 66 444 q 193 895 66 767 q 532 1023 321 1023 q 872 895 744 1023 q 1000 555 1000 767 q 958 350 1000 444 q 831 174 917 255 "},"Ö":{"x_min":60,"x_max":1037,"ha":1096,"o":"m 270 498 q 343 242 270 333 q 548 151 416 151 q 755 242 681 151 q 829 498 829 333 q 755 754 829 663 q 548 846 681 846 q 343 755 416 846 q 270 498 270 664 m 60 498 q 191 882 60 740 q 547 1025 323 1025 q 904 882 771 1025 q 1037 498 1037 740 q 904 114 1037 256 q 547 -28 771 -28 q 191 114 323 -28 q 60 498 60 256 m 590 1126 l 590 1293 l 743 1293 l 743 1126 l 590 1126 m 354 1126 l 354 1293 l 507 1293 l 507 1126 l 354 1126 "},"z":{"x_min":24,"x_max":678,"ha":703,"o":"m 24 0 l 24 151 l 428 580 l 47 580 l 47 737 l 664 737 l 664 576 l 265 164 l 678 164 l 678 0 l 24 0 "},"™":{"x_min":141,"x_max":981,"ha":1157,"o":"m 545 991 l 678 991 l 764 765 l 847 991 l 981 991 l 981 620 l 889 620 l 889 898 l 785 620 l 744 620 l 637 898 l 637 620 l 545 620 l 545 991 m 141 991 l 470 991 l 470 915 l 356 915 l 356 620 l 255 620 l 255 915 l 141 915 l 141 991 "},"ã":{"x_min":47,"x_max":735,"ha":781,"o":"m 508 91 q 410 4 471 34 q 270 -26 350 -26 q 105 35 163 -26 q 47 208 47 96 q 104 368 47 313 q 295 443 162 423 q 376 454 326 448 q 502 526 502 470 q 474 590 502 571 q 381 610 446 610 q 289 586 321 610 q 257 518 257 562 l 257 508 l 73 508 l 73 521 q 153 699 73 634 q 374 764 233 764 q 611 710 529 764 q 694 555 694 656 l 694 136 q 703 67 694 90 q 735 33 712 44 l 735 0 l 530 0 q 514 42 519 19 q 508 91 509 65 m 505 363 q 394 327 456 340 q 329 313 331 313 q 256 275 277 298 q 236 213 236 253 q 262 149 236 173 q 333 125 288 125 q 459 170 413 125 q 505 293 505 215 l 505 363 m 595 1043 q 542 917 577 957 q 453 877 508 877 q 427 878 439 877 q 403 884 415 880 l 344 902 q 320 908 331 906 q 299 910 309 910 q 261 897 276 910 q 239 857 247 885 l 165 857 q 215 978 181 939 q 303 1017 249 1017 q 331 1014 317 1017 q 361 1007 346 1012 l 424 989 q 442 985 432 986 q 462 984 451 984 q 498 998 483 984 q 520 1043 512 1013 l 595 1043 "},"æ":{"x_min":47,"x_max":1182,"ha":1227,"o":"m 679 447 l 978 447 l 978 451 q 937 565 978 524 q 826 607 897 607 q 720 563 760 607 q 679 447 681 520 m 501 359 q 380 323 452 337 q 290 299 308 308 q 251 264 264 287 q 238 211 238 242 q 265 146 238 169 q 344 124 293 124 q 455 165 409 124 q 501 265 501 207 l 501 359 m 576 104 q 456 6 530 38 q 277 -25 383 -25 q 106 35 165 -25 q 47 208 47 95 q 102 364 47 307 q 272 438 158 421 q 352 449 302 442 q 496 524 496 467 q 471 589 496 572 q 374 607 445 607 q 288 582 318 607 q 259 512 259 558 l 259 507 l 73 507 l 73 522 q 154 699 73 635 q 382 764 236 764 q 518 743 457 764 q 618 685 580 723 q 713 744 660 725 q 837 764 766 764 q 1091 660 1001 764 q 1182 368 1182 557 q 1181 337 1182 347 q 1180 317 1181 326 l 679 317 q 721 182 679 230 q 837 135 762 135 q 919 157 885 135 q 977 225 954 179 l 1174 225 q 1053 41 1146 107 q 823 -25 960 -25 q 676 8 739 -25 q 576 104 613 41 "},"É":{"x_min":103,"x_max":853,"ha":907,"o":"m 103 0 l 103 999 l 828 999 l 828 825 l 306 825 l 306 613 l 783 613 l 783 442 l 306 442 l 306 184 l 853 184 l 853 0 l 103 0 m 665 1337 l 452 1086 l 356 1086 l 489 1337 l 665 1337 "},"~":{"x_min":121,"x_max":1038,"ha":1157,"o":"m 1038 543 l 1038 393 q 904 323 967 346 q 780 301 841 301 q 718 306 749 301 q 656 321 687 311 q 607 338 639 327 q 382 389 459 389 q 261 363 324 389 q 121 282 199 338 l 121 433 q 259 505 193 481 q 383 529 325 529 q 580 490 462 529 l 583 489 q 620 476 595 485 q 783 440 726 440 q 902 464 841 440 q 1038 543 963 489 "},"³":{"x_min":25,"x_max":486,"ha":519,"o":"m 25 556 l 148 556 q 174 481 149 506 q 249 457 199 457 q 324 480 298 457 q 351 545 351 503 q 320 611 351 589 q 228 633 289 633 l 209 633 l 209 714 l 223 714 q 306 733 279 714 q 333 792 333 752 q 310 846 333 826 q 248 867 287 867 q 182 844 205 867 q 160 780 160 821 l 160 776 l 39 776 q 96 911 40 863 q 253 960 152 960 q 406 917 350 960 q 462 801 462 874 q 442 734 462 763 q 385 687 423 705 q 460 632 435 667 q 486 551 486 598 q 422 412 486 463 q 250 361 359 361 q 83 411 142 361 q 25 553 25 461 l 25 556 "},"¡":{"x_min":125.28125,"x_max":333.75,"ha":458,"o":"m 329 999 l 329 799 l 128 799 l 128 999 l 329 999 m 280 721 l 333 269 l 333 0 l 125 0 l 125 269 l 178 721 l 280 721 "},"[":{"x_min":161,"x_max":503,"ha":530,"o":"m 161 999 l 503 999 l 503 855 l 344 855 l 344 -152 l 503 -152 l 503 -296 l 161 -296 l 161 999 "},"%":{"x_min":45,"x_max":1150,"ha":1194,"o":"m 793 225 q 823 149 793 180 q 898 119 853 119 q 972 150 941 119 q 1003 225 1003 181 q 972 298 1003 267 q 898 329 941 329 q 823 299 853 329 q 793 225 793 269 m 646 225 q 719 403 646 330 q 898 476 792 476 q 1076 402 1003 476 q 1150 225 1150 328 q 1076 46 1150 120 q 898 -28 1002 -28 q 719 45 792 -28 q 646 225 646 118 m 251 -28 l 829 971 l 939 971 l 360 -28 l 251 -28 m 192 719 q 222 644 192 674 q 296 614 252 614 q 371 644 340 614 q 402 719 402 675 q 371 793 402 762 q 296 824 340 824 q 222 793 252 824 q 192 719 192 763 m 45 718 q 118 897 45 824 q 297 971 191 971 q 475 896 401 971 q 549 718 549 822 q 475 540 549 614 q 297 467 401 467 q 117 539 190 467 q 45 718 45 611 "},"P":{"x_min":103,"x_max":867,"ha":926,"o":"m 309 536 l 508 536 q 626 570 589 536 q 663 680 663 604 q 626 788 663 751 q 519 825 590 825 l 309 825 l 309 536 m 308 355 l 308 0 l 103 0 l 103 999 l 547 999 q 785 917 704 999 q 867 677 867 835 q 787 438 867 522 q 560 355 708 355 l 308 355 "},"∏":{"x_min":102,"x_max":989,"ha":1093,"o":"m 102 999 l 989 999 l 989 -266 l 756 -266 l 756 803 l 335 803 l 335 -266 l 102 -266 l 102 999 "},"_":{"x_min":0,"x_max":694,"ha":694,"o":"m 0 -190 l 694 -190 l 694 -328 l 0 -328 l 0 -190 "},"ñ":{"x_min":86,"x_max":746,"ha":829,"o":"m 86 0 l 86 737 l 278 737 l 278 649 q 376 730 320 703 q 502 757 433 757 q 685 693 624 757 q 746 502 746 630 l 746 0 l 549 0 l 549 445 q 522 559 549 525 q 434 593 495 593 q 323 551 364 593 q 283 437 283 509 l 283 0 l 86 0 m 640 1043 q 587 917 622 957 q 498 877 553 877 q 472 878 484 877 q 448 884 460 880 l 389 902 q 365 908 376 906 q 344 910 354 910 q 306 897 321 910 q 284 857 292 885 l 210 857 q 260 978 226 939 q 348 1017 294 1017 q 376 1014 362 1017 q 406 1007 391 1012 l 469 989 q 487 985 477 986 q 507 984 496 984 q 543 998 528 984 q 565 1043 557 1013 l 640 1043 "},"‚":{"x_min":86,"x_max":275,"ha":361,"o":"m 86 0 l 86 179 l 275 179 l 275 4 q 222 -139 275 -81 q 86 -201 169 -196 l 86 -132 q 161 -87 136 -118 q 187 -8 187 -56 l 187 0 l 86 0 "},"Æ":{"x_min":-10,"x_max":1335,"ha":1392,"o":"m 341 366 l 622 366 l 622 829 l 509 829 l 341 366 m -10 0 l 384 999 l 1309 999 l 1309 825 l 820 825 l 820 613 l 1265 613 l 1265 442 l 820 442 l 820 184 l 1335 184 l 1335 0 l 622 0 l 622 205 l 283 205 l 208 0 l -10 0 "},"₣":{"x_min":103,"x_max":1342.6875,"ha":1364,"o":"m 103 0 l 103 999 l 800 999 l 800 825 l 306 825 l 306 599 l 739 599 l 739 425 l 306 425 l 306 0 l 103 0 m 917 0 l 917 737 l 1099 737 l 1099 611 q 1190 722 1138 686 q 1313 758 1241 758 q 1331 757 1324 758 q 1342 756 1337 757 l 1342 557 l 1276 557 q 1154 514 1195 557 q 1114 390 1114 472 l 1114 0 l 917 0 "},"ğ":{"x_min":47,"x_max":759,"ha":847,"o":"m 247 380 q 288 220 247 276 q 407 165 330 165 q 526 220 485 165 q 568 383 568 276 q 525 539 568 484 q 405 595 483 595 q 288 538 329 595 q 247 380 247 482 m 69 -71 l 285 -70 q 323 -125 294 -107 q 402 -144 353 -144 q 531 -105 494 -144 q 568 38 568 -66 l 568 104 q 486 25 536 50 q 362 0 437 0 q 133 102 219 0 q 47 373 47 204 q 131 658 47 552 q 359 764 215 764 q 486 735 433 764 q 572 648 538 706 l 572 737 l 759 737 l 759 48 q 737 -128 759 -67 q 663 -230 715 -189 q 549 -283 618 -265 q 392 -301 481 -301 q 160 -240 245 -301 q 69 -71 75 -180 m 215 1053 l 298 1053 q 332 977 302 1001 q 424 953 362 953 q 515 976 485 953 q 550 1053 545 1000 l 633 1053 q 575 896 625 946 q 424 847 525 847 q 273 897 324 847 q 215 1053 222 947 "},"ª":{"x_min":29,"x_max":558.875,"ha":586,"o":"m 67 372 l 520 372 l 520 287 l 67 287 l 67 372 m 373 731 q 278 706 337 719 q 184 636 184 684 q 201 593 184 608 q 251 579 218 579 q 340 609 307 579 q 373 691 373 639 l 373 731 m 527 875 l 527 581 q 534 535 527 551 q 558 512 541 520 l 558 482 l 394 482 q 381 508 385 495 q 375 535 377 521 q 306 482 351 501 q 203 464 262 464 q 74 507 119 464 q 29 632 29 551 q 73 746 29 705 q 209 800 117 787 q 277 808 235 803 q 370 854 370 818 q 352 895 370 883 q 286 907 333 907 q 222 892 244 907 q 200 847 200 877 l 200 836 l 48 836 l 48 848 q 110 978 48 932 q 281 1025 171 1025 q 463 986 400 1025 q 527 875 527 948 "},"Œ":{"x_min":60,"x_max":1513,"ha":1567,"o":"m 767 0 l 767 68 q 641 -3 707 20 q 500 -28 576 -28 q 181 116 303 -28 q 60 498 60 261 q 181 881 60 736 q 501 1026 303 1026 q 642 1002 577 1026 q 767 928 707 978 l 767 999 l 1487 999 l 1487 825 l 966 825 l 966 613 l 1443 613 l 1443 442 l 966 442 l 966 184 l 1513 184 l 1513 0 l 767 0 m 767 234 l 767 762 q 664 831 717 809 q 548 854 611 854 q 339 764 409 854 q 270 497 270 674 q 340 233 270 323 q 548 144 410 144 q 665 166 612 144 q 767 234 718 188 "},"T":{"x_min":14,"x_max":811,"ha":825,"o":"m 311 0 l 311 821 l 14 821 l 14 999 l 811 999 l 811 821 l 516 821 l 516 0 l 311 0 "},"š":{"x_min":44,"x_max":715,"ha":758,"o":"m 44 240 l 241 240 q 281 156 243 183 q 395 129 319 129 q 484 148 453 129 q 516 202 516 167 q 398 278 516 253 q 321 295 349 288 q 121 382 177 332 q 66 518 66 432 q 147 697 66 631 q 369 764 229 764 q 601 698 516 764 q 691 513 685 632 l 499 513 q 463 585 496 559 q 370 611 429 611 q 286 594 313 611 q 259 543 259 577 q 406 465 259 499 q 459 453 440 457 q 661 369 607 418 q 715 231 715 320 q 626 40 715 106 q 368 -25 537 -25 q 130 43 216 -25 q 44 231 44 111 l 44 240 m 166 1076 l 260 1076 l 379 927 l 497 1076 l 593 1076 l 460 825 l 298 825 l 166 1076 "},"Þ":{"x_min":103,"x_max":852,"ha":913,"o":"m 306 843 l 538 843 q 772 766 693 843 q 852 541 852 690 q 774 318 852 396 q 552 240 696 240 l 306 240 l 306 0 l 103 0 l 103 999 l 306 999 l 306 843 m 307 407 l 504 407 q 622 439 585 407 q 659 542 659 471 q 622 641 659 607 q 514 675 585 675 l 307 675 l 307 407 "},"j":{"x_min":4,"x_max":287,"ha":376,"o":"m 90 819 l 90 997 l 287 997 l 287 819 l 90 819 m 4 -301 l 4 -136 l 42 -136 q 78 -124 67 -136 q 90 -85 90 -112 l 90 737 l 287 737 l 287 -117 q 231 -258 287 -216 q 41 -301 175 -301 l 4 -301 "},"1":{"x_min":110,"x_max":533,"ha":787,"o":"m 342 0 l 342 664 l 110 664 l 110 800 l 124 800 q 309 839 251 800 q 377 971 367 878 l 533 971 l 533 0 l 342 0 "},"›":{"x_min":53,"x_max":281,"ha":329,"o":"m 281 455 l 281 282 l 53 86 l 53 247 l 192 369 l 53 489 l 53 652 l 281 455 "},"<":{"x_min":179,"x_max":978,"ha":1157,"o":"m 978 809 l 978 660 l 372 413 l 978 166 l 978 18 l 179 346 l 179 481 l 978 809 "},"t":{"x_min":6.75,"x_max":413,"ha":441,"o":"m 413 -5 q 348 -8 385 -6 q 300 -10 310 -10 q 145 32 187 -10 q 104 200 104 74 l 104 599 l 6 599 l 6 737 l 104 737 l 104 939 l 299 939 l 299 737 l 413 737 l 413 599 l 299 599 l 299 190 q 311 152 299 161 q 364 143 324 143 l 413 143 l 413 -5 "},"¬":{"x_min":172,"x_max":984,"ha":1157,"o":"m 172 586 l 984 586 l 984 246 l 849 246 l 849 453 l 172 453 l 172 586 "},"ù":{"x_min":83,"x_max":743,"ha":829,"o":"m 743 737 l 743 0 l 550 0 l 550 87 q 451 6 507 33 q 326 -20 395 -20 q 143 43 204 -20 q 83 233 83 107 l 83 737 l 280 737 l 280 290 q 306 178 280 212 q 394 145 333 145 q 504 186 463 145 q 546 300 546 228 l 546 737 l 743 737 m 217 1076 l 392 1076 l 526 825 l 429 825 l 217 1076 "},"ï":{"x_min":-5,"x_max":384,"ha":378,"o":"m 90 0 l 90 737 l 287 737 l 287 0 l 90 0 m 231 865 l 231 1032 l 384 1032 l 384 865 l 231 865 m -5 865 l -5 1032 l 148 1032 l 148 865 l -5 865 "},"Ò":{"x_min":60,"x_max":1037,"ha":1096,"o":"m 270 498 q 343 242 270 333 q 548 151 416 151 q 755 242 681 151 q 829 498 829 333 q 755 754 829 663 q 548 846 681 846 q 343 755 416 846 q 270 498 270 664 m 60 498 q 191 882 60 740 q 547 1025 323 1025 q 904 882 771 1025 q 1037 498 1037 740 q 904 114 1037 256 q 547 -28 771 -28 q 191 114 323 -28 q 60 498 60 256 m 350 1337 l 525 1337 l 659 1086 l 562 1086 l 350 1337 "},"&":{"x_min":65,"x_max":958,"ha":974,"o":"m 374 436 l 322 398 q 276 346 292 377 q 261 278 261 316 q 300 181 261 220 q 398 142 339 142 q 481 159 441 142 q 554 212 520 177 l 374 436 m 428 650 l 452 666 q 500 717 484 689 q 516 780 516 744 q 494 835 516 815 q 436 856 473 856 q 377 835 399 856 q 356 779 356 814 q 366 738 356 760 q 396 690 377 715 l 428 650 m 276 559 l 237 611 q 193 687 206 651 q 180 762 180 723 q 249 934 180 870 q 438 999 319 999 q 619 939 553 999 q 686 780 686 880 q 646 644 686 704 q 524 531 607 584 l 667 355 q 700 429 688 388 q 717 522 712 471 l 893 522 q 856 358 885 433 q 776 221 827 283 l 958 0 l 727 0 l 659 83 q 528 0 599 28 q 378 -28 456 -28 q 152 54 240 -28 q 65 263 65 136 q 113 427 65 358 q 276 559 162 495 "},"":{"x_min":-31,"x_max":775,"ha":787,"o":"m 77 387 l -11 387 l 20 458 l 76 458 q 75 483 76 467 q 75 504 75 498 q 75 509 75 506 q 76 539 76 526 l -31 539 l 1 610 l 77 610 q 188 920 95 815 q 450 1025 282 1025 q 676 937 593 1025 q 775 683 760 850 l 583 683 q 544 815 580 767 q 446 864 508 864 q 330 798 372 864 q 283 610 287 732 l 536 610 l 503 539 l 278 539 l 278 498 l 278 458 l 467 458 l 435 387 l 283 387 q 329 200 288 265 q 444 135 371 135 q 543 183 508 135 q 583 327 578 232 l 775 327 q 676 61 760 151 q 445 -28 593 -28 q 189 77 283 -28 q 77 387 96 182 "},"˝":{"x_min":200,"x_max":641,"ha":694,"o":"m 381 825 l 485 1076 l 641 1076 l 458 825 l 381 825 m 200 825 l 277 1076 l 427 1076 l 270 825 l 200 825 "},"I":{"x_min":110,"x_max":315,"ha":427,"o":"m 110 0 l 110 999 l 315 999 l 315 0 l 110 0 "},"G":{"x_min":60,"x_max":985,"ha":1079,"o":"m 822 118 q 695 7 766 42 q 529 -28 624 -28 q 189 117 319 -28 q 60 499 60 263 q 189 881 60 738 q 534 1025 318 1025 q 840 935 722 1025 q 982 688 959 845 l 772 688 q 694 806 753 765 q 541 847 636 847 q 345 755 416 847 q 274 501 274 663 q 348 246 274 338 q 553 154 423 154 q 716 211 650 154 q 798 370 782 269 l 571 370 l 571 541 l 985 541 l 985 0 l 847 0 l 822 118 "},"`":{"x_min":149,"x_max":458,"ha":694,"o":"m 149 1076 l 324 1076 l 458 825 l 361 825 l 149 1076 "},"·":{"x_min":92,"x_max":303,"ha":395,"o":"m 92 476 q 122 551 92 520 q 197 582 153 582 q 272 551 241 582 q 303 476 303 520 q 272 401 303 432 q 197 371 241 371 q 122 401 153 371 q 92 476 92 431 "},"¿":{"x_min":50,"x_max":726,"ha":775,"o":"m 487 999 l 487 799 l 286 799 l 286 999 l 487 999 m 478 708 q 478 688 478 701 q 479 669 479 675 q 466 570 479 610 q 425 495 453 530 q 359 436 402 469 q 304 388 316 403 q 267 333 278 358 q 257 279 257 308 q 292 178 257 214 q 391 143 327 143 q 492 186 455 143 q 533 307 529 229 l 726 307 l 726 285 q 635 57 726 142 q 391 -28 544 -28 q 142 53 235 -28 q 50 269 50 134 q 60 355 50 318 q 91 423 70 393 q 177 506 118 461 q 249 563 235 551 q 286 616 274 588 q 297 684 297 644 q 296 696 297 688 q 296 708 296 703 l 478 708 "},"ý":{"x_min":8,"x_max":739,"ha":746,"o":"m 115 -295 l 115 -136 q 134 -138 124 -137 q 161 -139 144 -139 q 248 -111 219 -139 q 277 -29 277 -84 q 276 -18 277 -25 q 273 -8 275 -12 l 8 737 l 225 737 l 380 205 l 531 737 l 739 737 l 435 -132 q 351 -265 401 -229 q 198 -301 300 -301 q 159 -299 180 -301 q 115 -295 138 -298 m 572 1076 l 359 825 l 263 825 l 396 1076 l 572 1076 "},"º":{"x_min":31,"x_max":605,"ha":633,"o":"m 72 372 l 562 372 l 562 287 l 72 287 l 72 372 m 317 899 q 226 858 258 899 q 195 744 195 818 q 226 629 195 669 q 317 590 257 590 q 408 630 376 590 q 441 744 441 670 q 408 858 441 818 q 317 899 375 899 m 317 1025 q 527 950 450 1025 q 605 744 605 875 q 528 538 605 613 q 317 464 451 464 q 106 538 182 464 q 31 744 31 613 q 107 950 31 875 q 317 1025 183 1025 "},"∞":{"x_min":139,"x_max":1019,"ha":1157,"o":"m 638 380 q 710 303 669 329 q 805 278 752 278 q 908 315 868 278 q 948 413 948 353 q 911 510 948 472 q 820 549 874 549 q 726 509 769 549 q 638 380 683 470 m 519 447 q 447 523 489 498 q 352 549 406 549 q 249 510 289 549 q 210 412 210 472 q 246 316 210 354 q 337 278 283 278 q 431 317 388 278 q 519 447 474 356 m 581 309 q 482 177 535 220 q 364 135 429 135 q 204 214 269 135 q 139 413 139 294 q 196 615 139 538 q 348 692 254 692 q 463 651 410 692 q 574 517 516 610 q 675 649 621 606 q 793 693 729 693 q 953 612 888 693 q 1019 413 1019 532 q 960 213 1019 289 q 809 136 902 136 q 693 176 746 136 q 581 309 641 215 "},";":{"x_min":110,"x_max":315,"ha":427,"o":"m 111 520 l 111 725 l 315 725 l 315 520 l 111 520 m 111 -235 l 111 -155 q 195 -105 168 -139 q 222 -16 222 -71 l 222 0 l 110 0 l 110 204 l 315 204 l 315 8 q 263 -155 315 -93 q 111 -235 212 -216 "},"6":{"x_min":45,"x_max":746,"ha":787,"o":"m 250 308 q 291 176 250 225 q 405 128 333 128 q 510 175 472 128 q 549 307 549 222 q 509 428 549 385 q 398 472 470 472 q 289 428 328 472 q 250 308 250 385 m 247 562 q 327 613 280 596 q 431 631 374 631 q 660 544 574 631 q 746 312 746 457 q 652 65 746 159 q 405 -29 558 -29 q 136 93 228 -29 q 45 450 45 215 q 143 837 45 703 q 426 971 241 971 q 634 903 555 971 q 721 722 713 836 l 524 722 q 487 792 517 768 q 403 816 457 816 q 291 752 330 816 q 247 562 252 689 "},"n":{"x_min":86,"x_max":746,"ha":829,"o":"m 86 0 l 86 737 l 278 737 l 278 649 q 376 730 320 703 q 502 757 433 757 q 685 693 624 757 q 746 502 746 630 l 746 0 l 549 0 l 549 445 q 522 559 549 525 q 434 593 495 593 q 323 551 364 593 q 283 437 283 509 l 283 0 l 86 0 "},"¤":{"x_min":-31,"x_max":775,"ha":787,"o":"m 77 387 l -11 387 l 20 458 l 76 458 q 75 483 76 467 q 75 504 75 498 q 75 509 75 506 q 76 539 76 526 l -31 539 l 1 610 l 77 610 q 188 920 95 815 q 450 1025 282 1025 q 676 937 593 1025 q 775 683 760 850 l 583 683 q 544 815 580 767 q 446 864 508 864 q 330 798 372 864 q 283 610 287 732 l 536 610 l 503 539 l 278 539 l 278 498 l 278 458 l 467 458 l 435 387 l 283 387 q 329 200 288 265 q 444 135 371 135 q 543 183 508 135 q 583 327 578 232 l 775 327 q 676 61 760 151 q 445 -28 593 -28 q 189 77 283 -28 q 77 387 96 182 "},"∂":{"x_min":52,"x_max":694,"ha":742,"o":"m 517 448 q 537 577 530 516 q 544 682 544 637 q 526 789 544 750 q 479 829 509 829 q 379 779 449 829 q 270 729 310 729 q 222 749 242 729 q 202 799 202 770 q 261 879 202 842 q 404 916 320 916 q 614 806 535 916 q 694 512 694 696 q 587 132 694 282 q 318 -17 481 -17 q 127 60 202 -17 q 52 258 52 138 q 130 481 52 392 q 325 571 209 571 q 441 541 395 571 q 517 448 487 511 m 476 351 q 449 471 476 429 q 374 514 423 514 q 260 423 305 514 q 215 191 215 332 q 241 71 215 112 q 317 30 267 30 q 431 120 386 30 q 476 351 476 211 "},"p":{"x_min":90,"x_max":803,"ha":851,"o":"m 607 363 q 564 533 607 474 q 442 592 522 592 q 323 533 364 592 q 282 363 282 475 q 325 202 282 259 q 446 146 368 146 q 564 204 521 146 q 607 363 607 262 m 90 -296 l 90 737 l 277 737 l 277 636 q 373 732 320 702 q 497 762 425 762 q 718 654 633 762 q 803 372 803 547 q 718 85 803 195 q 499 -25 633 -25 q 373 4 429 -25 q 282 91 318 34 l 282 -296 l 90 -296 "},"‡":{"x_min":40,"x_max":655,"ha":694,"o":"m 267 -147 l 267 109 l 40 109 l 40 238 l 267 238 l 267 611 l 40 611 l 40 741 l 267 741 l 267 999 l 428 999 l 428 741 l 655 741 l 655 611 l 428 611 l 428 238 l 655 238 l 655 109 l 428 109 l 428 -147 l 267 -147 "},"√":{"x_min":49,"x_max":914,"ha":913,"o":"m 773 1149 l 914 1149 l 914 1062 l 844 1062 l 442 -28 l 375 -28 l 164 554 l 69 519 l 49 596 l 273 675 l 433 226 l 773 1149 "},"S":{"x_min":57,"x_max":870,"ha":926,"o":"m 57 308 l 260 308 q 327 186 271 226 q 488 147 382 147 q 623 178 577 147 q 669 273 669 210 q 407 423 669 363 l 401 424 q 380 429 394 426 q 180 498 240 460 q 99 589 127 532 q 72 724 72 646 q 171 948 72 870 q 457 1026 270 1026 q 730 943 632 1026 q 835 710 829 860 l 638 710 q 582 820 632 782 q 439 858 532 858 q 314 826 358 858 q 271 736 271 795 q 441 618 271 657 q 513 601 487 607 q 668 557 622 573 q 747 523 713 542 q 839 433 808 489 q 870 299 870 377 q 764 57 870 143 q 468 -28 659 -28 q 172 59 279 -28 q 57 308 65 146 "},"/":{"x_min":5,"x_max":434,"ha":440,"o":"m 5 -129 l 341 1025 l 434 1025 l 96 -129 l 5 -129 "},"y":{"x_min":8,"x_max":739,"ha":746,"o":"m 115 -295 l 115 -136 q 134 -138 124 -137 q 161 -139 144 -139 q 248 -111 219 -139 q 277 -29 277 -84 q 276 -18 277 -25 q 273 -8 275 -12 l 8 737 l 225 737 l 380 205 l 531 737 l 739 737 l 435 -132 q 351 -265 401 -229 q 198 -301 300 -301 q 159 -299 180 -301 q 115 -295 138 -298 "},"≈":{"x_min":121,"x_max":1038,"ha":1157,"o":"m 1038 404 l 1038 256 q 903 183 966 206 q 780 161 841 161 q 586 206 716 161 q 382 252 456 252 q 263 226 325 252 q 121 144 202 201 l 121 292 q 261 366 196 342 q 383 390 325 390 q 597 345 467 390 q 783 301 727 301 q 901 325 841 301 q 1038 404 961 349 m 1038 684 l 1038 535 q 904 464 966 486 q 782 442 843 442 q 588 486 718 442 q 382 531 458 531 q 266 507 326 531 q 121 424 207 483 l 121 572 q 259 645 193 621 q 383 670 325 670 q 598 625 468 670 q 783 581 728 581 q 899 604 840 581 q 1038 684 958 628 "},"g":{"x_min":47,"x_max":759,"ha":847,"o":"m 247 380 q 288 220 247 276 q 407 165 330 165 q 526 220 485 165 q 568 383 568 276 q 525 539 568 484 q 405 595 483 595 q 288 538 329 595 q 247 380 247 482 m 69 -71 l 285 -70 q 323 -125 294 -107 q 402 -144 353 -144 q 531 -105 494 -144 q 568 38 568 -66 l 568 104 q 486 25 536 50 q 362 0 437 0 q 133 102 219 0 q 47 373 47 204 q 131 658 47 552 q 359 764 215 764 q 486 735 433 764 q 572 648 538 706 l 572 737 l 759 737 l 759 48 q 737 -128 759 -67 q 663 -230 715 -189 q 549 -283 618 -265 q 392 -301 481 -301 q 160 -240 245 -301 q 69 -71 75 -180 "},"²":{"x_min":21,"x_max":476,"ha":519,"o":"m 21 378 q 58 510 23 456 q 184 620 94 565 q 220 641 197 628 q 346 779 346 713 q 320 840 346 818 q 251 863 295 863 q 176 835 202 863 q 150 757 150 808 l 150 752 l 32 752 q 91 906 32 852 q 259 960 150 960 q 417 911 358 960 q 476 780 476 862 q 445 680 476 722 q 326 583 415 638 q 269 548 305 570 q 179 476 189 501 l 470 476 l 470 378 l 21 378 "},"ë":{"x_min":49,"x_max":748,"ha":791,"o":"m 541 224 l 738 224 q 617 41 708 107 q 396 -25 526 -25 q 142 82 236 -25 q 49 373 49 190 q 141 659 49 555 q 393 764 233 764 q 655 661 563 764 q 748 368 748 558 q 747 337 748 347 q 746 317 747 326 l 253 317 q 295 186 257 230 q 405 142 333 142 q 489 161 456 142 q 541 224 521 181 m 253 447 l 544 447 q 504 560 541 521 q 397 599 467 599 q 296 559 333 599 q 253 447 259 520 m 438 865 l 438 1032 l 591 1032 l 591 865 l 438 865 m 202 865 l 202 1032 l 355 1032 l 355 865 l 202 865 "},"–":{"x_min":0,"x_max":694,"ha":694,"o":"m 0 294 l 0 444 l 694 444 l 694 294 l 0 294 "},"ƒ":{"x_min":-7,"x_max":722,"ha":787,"o":"m -7 -263 l 34 -107 q 74 -122 56 -117 q 105 -128 92 -128 q 166 -102 146 -128 q 198 -4 187 -76 l 284 532 l 120 532 l 120 666 l 308 666 l 323 750 q 409 962 350 899 q 577 1025 467 1025 q 647 1017 611 1025 q 722 995 682 1010 l 683 847 q 644 862 663 857 q 609 867 625 867 q 544 839 566 867 q 512 743 522 812 l 499 666 l 673 666 l 673 532 l 483 532 l 417 124 q 379 -75 397 -5 q 340 -181 361 -146 q 254 -267 302 -240 q 138 -295 206 -295 q 67 -287 103 -295 q -7 -263 31 -279 "},"J":{"x_min":33,"x_max":672,"ha":768,"o":"m 33 372 l 232 372 l 232 251 q 263 171 232 198 q 352 144 294 144 q 441 177 416 144 q 467 302 467 210 l 467 999 l 672 999 l 672 292 q 660 153 672 197 q 623 75 649 108 q 515 -1 584 24 q 355 -28 447 -28 q 205 -4 270 -28 q 96 63 140 18 q 47 145 62 100 q 33 293 33 190 l 33 372 "},"Ã":{"x_min":0,"x_max":953,"ha":953,"o":"m 474 799 l 336 374 l 613 374 l 474 799 m 355 999 l 592 999 l 953 0 l 737 0 l 669 206 l 282 206 l 216 0 l 0 0 l 355 999 m 691 1304 q 638 1178 673 1218 q 549 1138 604 1138 q 523 1139 535 1138 q 499 1145 511 1141 l 440 1163 q 416 1169 427 1167 q 395 1171 405 1171 q 357 1158 372 1171 q 335 1118 343 1146 l 261 1118 q 311 1239 277 1200 q 399 1278 345 1278 q 427 1275 413 1278 q 457 1268 442 1273 l 520 1250 q 538 1246 528 1247 q 558 1245 547 1245 q 594 1259 579 1245 q 616 1304 608 1274 l 691 1304 "},"©":{"x_min":75,"x_max":1083,"ha":1157,"o":"m 821 608 l 693 608 q 657 681 688 655 q 577 708 627 708 q 480 652 515 708 q 445 498 445 597 q 480 346 445 398 q 582 294 515 294 q 662 322 632 294 q 698 403 691 351 l 829 403 q 755 252 823 309 q 578 196 686 196 q 379 275 452 196 q 307 494 307 355 q 381 716 307 633 q 580 800 455 800 q 750 747 683 800 q 821 608 816 694 m 579 918 q 416 886 492 918 q 282 796 341 855 q 189 658 221 735 q 158 497 158 581 q 189 337 158 413 q 282 201 221 261 q 418 109 341 141 q 579 78 494 78 q 740 109 663 78 q 878 202 816 141 q 969 335 938 260 q 1000 497 1000 411 q 968 659 1000 582 q 877 794 936 735 q 741 886 816 855 q 579 918 665 918 m 577 1003 q 772 965 680 1003 q 937 854 864 927 q 1045 691 1008 783 q 1083 496 1083 599 q 1046 304 1083 393 q 937 144 1009 214 q 768 32 861 71 q 577 -7 676 -7 q 387 31 477 -7 q 223 142 296 69 q 112 306 150 214 q 75 496 75 397 q 112 689 75 598 q 223 855 150 781 q 385 965 294 927 q 577 1003 475 1003 "},"˘":{"x_min":138,"x_max":556,"ha":694,"o":"m 138 1053 l 221 1053 q 255 977 225 1001 q 347 953 285 953 q 438 976 408 953 q 473 1053 468 1000 l 556 1053 q 498 896 548 946 q 347 847 448 847 q 196 897 247 847 q 138 1053 145 947 "},"≥":{"x_min":175,"x_max":983,"ha":1157,"o":"m 175 133 l 983 133 l 983 -1 l 175 -1 l 175 133 m 176 842 l 981 580 l 981 463 l 176 202 l 176 343 l 740 521 l 176 700 l 176 842 "},"D":{"x_min":103,"x_max":950,"ha":1010,"o":"m 304 180 l 468 180 q 675 254 611 180 q 740 498 740 329 q 680 744 740 665 q 493 823 620 823 l 304 823 l 304 180 m 103 0 l 103 999 l 493 999 q 836 874 723 999 q 950 498 950 750 q 908 257 950 361 q 787 88 866 152 q 651 20 727 41 q 438 0 575 0 l 103 0 "},"ÿ":{"x_min":8,"x_max":739,"ha":746,"o":"m 115 -295 l 115 -136 q 134 -138 124 -137 q 161 -139 144 -139 q 248 -111 219 -139 q 277 -29 277 -84 q 276 -18 277 -25 q 273 -8 275 -12 l 8 737 l 225 737 l 380 205 l 531 737 l 739 737 l 435 -132 q 351 -265 401 -229 q 198 -301 300 -301 q 159 -299 180 -301 q 115 -295 138 -298 m 415 865 l 415 1032 l 568 1032 l 568 865 l 415 865 m 179 865 l 179 1032 l 332 1032 l 332 865 l 179 865 "},"ł":{"x_min":-43,"x_max":434,"ha":390,"o":"m 97 0 l 97 379 l 26 326 l -43 417 l 97 523 l 97 999 l 294 999 l 294 641 l 363 694 l 434 602 l 294 498 l 294 0 l 97 0 "},"Ł":{"x_min":-43,"x_max":803,"ha":811,"o":"m 110 0 l 110 370 l 31 316 l -43 424 l 110 530 l 110 999 l 315 999 l 315 652 l 543 812 l 619 705 l 315 492 l 315 184 l 803 184 l 803 0 l 110 0 "},"$":{"x_min":49,"x_max":739,"ha":787,"o":"m 435 126 q 519 166 490 133 q 548 252 548 198 q 520 332 548 301 q 435 382 493 364 l 435 126 m 354 589 l 354 821 q 273 784 301 814 q 246 705 246 755 q 271 636 246 664 q 354 589 297 608 m 354 -153 l 354 -22 q 124 66 200 -13 q 49 296 49 145 l 231 296 q 265 180 234 222 q 354 126 295 137 l 354 407 q 130 511 196 447 q 64 687 64 575 q 142 887 64 811 q 354 967 221 963 l 354 1054 l 435 1054 l 435 967 q 640 887 567 960 q 722 682 714 814 l 538 682 q 507 779 533 745 q 435 816 482 812 l 435 569 q 670 450 602 517 q 739 273 739 383 q 659 66 739 143 q 435 -24 579 -11 l 435 -153 l 354 -153 "},"w":{"x_min":9,"x_max":1052,"ha":1063,"o":"m 218 0 l 9 737 l 209 737 l 329 226 l 432 737 l 633 737 l 740 226 l 860 737 l 1052 737 l 845 0 l 648 0 l 530 527 l 416 0 l 218 0 "},"\\":{"x_min":5,"x_max":434,"ha":440,"o":"m 341 -129 l 5 1025 l 96 1025 l 434 -129 l 341 -129 "},"∫":{"x_min":33,"x_max":771,"ha":804,"o":"m 231 -171 q 313 262 301 -171 q 318 405 315 354 q 401 902 328 750 q 623 1054 473 1054 q 730 1020 690 1054 q 771 933 771 987 q 745 867 771 892 q 677 843 719 843 q 625 859 646 843 q 597 905 604 875 q 592 942 594 919 q 572 974 590 973 q 492 544 505 974 q 488 423 489 465 q 466 122 480 223 q 426 -47 453 21 q 326 -200 388 -147 q 180 -253 263 -253 q 74 -219 115 -253 q 33 -133 33 -186 q 59 -66 33 -91 q 130 -41 85 -41 q 188 -62 164 -41 q 212 -111 212 -83 q 216 -160 212 -150 q 231 -171 220 -171 "},"Ì":{"x_min":15,"x_max":324,"ha":427,"o":"m 110 0 l 110 999 l 315 999 l 315 0 l 110 0 m 15 1337 l 190 1337 l 324 1086 l 227 1086 l 15 1337 "},"Ç":{"x_min":61,"x_max":972.359375,"ha":1034,"o":"m 972 343 q 854 81 962 179 q 563 -26 745 -16 l 563 -61 l 573 -61 q 692 -93 652 -61 q 733 -190 733 -126 q 688 -291 733 -256 q 560 -326 644 -326 q 473 -318 520 -326 q 372 -297 425 -311 l 372 -210 q 471 -231 425 -224 q 547 -239 516 -239 q 598 -227 582 -239 q 615 -189 615 -215 q 597 -153 615 -164 q 537 -143 579 -143 l 509 -143 l 494 -143 l 494 -26 q 175 123 290 -15 q 61 498 61 261 q 186 889 61 753 q 547 1025 311 1025 q 849 931 738 1025 q 971 668 961 837 l 768 668 q 698 797 755 752 q 547 842 642 842 q 341 754 411 842 q 271 498 271 666 q 340 248 271 338 q 533 158 409 158 q 692 204 632 158 q 770 343 751 250 l 972 343 "},"C":{"x_min":61,"x_max":972,"ha":1034,"o":"m 972 343 q 840 72 960 172 q 528 -28 721 -28 q 184 110 307 -28 q 61 498 61 248 q 186 889 61 753 q 547 1025 311 1025 q 849 931 738 1025 q 971 668 960 838 l 768 668 q 698 797 755 752 q 547 842 642 842 q 341 754 411 842 q 271 498 271 666 q 341 246 271 335 q 540 158 411 158 q 693 205 634 158 q 771 343 753 253 l 972 343 "},"!":{"x_min":125.28125,"x_max":333.75,"ha":458,"o":"m 178 278 l 125 727 l 125 999 l 333 999 l 333 727 l 280 278 l 178 278 m 128 0 l 128 200 l 329 200 l 329 0 l 128 0 "},"ç":{"x_min":49,"x_max":726.359375,"ha":765,"o":"m 531 278 l 726 278 q 631 60 712 137 q 409 -20 549 -15 l 409 -61 l 418 -61 q 538 -93 498 -61 q 579 -190 579 -126 q 534 -291 579 -256 q 406 -326 490 -326 q 319 -318 366 -326 q 219 -296 272 -311 l 219 -209 q 325 -232 284 -225 q 391 -240 366 -240 q 444 -227 427 -240 q 461 -189 461 -214 q 442 -153 461 -164 q 382 -143 424 -143 l 354 -143 l 340 -143 l 340 -21 q 125 96 201 -5 q 49 368 49 198 q 141 659 49 554 q 398 764 234 764 q 628 687 541 764 q 725 476 714 611 l 529 476 q 487 566 520 535 q 399 598 454 598 q 290 539 327 598 q 254 366 254 481 q 291 202 254 260 q 395 145 328 145 q 487 177 454 145 q 531 278 521 210 "},"È":{"x_min":103,"x_max":853,"ha":907,"o":"m 103 0 l 103 999 l 828 999 l 828 825 l 306 825 l 306 613 l 783 613 l 783 442 l 306 442 l 306 184 l 853 184 l 853 0 l 103 0 m 268 1337 l 443 1337 l 577 1086 l 480 1086 l 268 1337 "},"X":{"x_min":-7,"x_max":876,"ha":869,"o":"m -7 0 l 307 510 l -7 999 l 230 999 l 434 649 l 637 999 l 876 999 l 562 511 l 876 0 l 638 0 l 434 345 l 230 0 l -7 0 "},"ô":{"x_min":49,"x_max":796,"ha":844,"o":"m 249 369 q 294 199 249 259 q 422 140 339 140 q 549 199 504 140 q 595 369 595 259 q 550 538 595 479 q 422 598 505 598 q 294 538 339 598 q 249 369 249 479 m 49 369 q 148 658 49 553 q 422 764 248 764 q 696 658 596 764 q 796 369 796 553 q 696 80 796 185 q 422 -25 596 -25 q 148 80 248 -25 q 49 369 49 185 m 209 825 l 341 1076 l 503 1076 l 636 825 l 540 825 l 422 972 l 303 825 l 209 825 "},"đ":{"x_min":50,"x_max":858,"ha":859,"o":"m 763 999 l 763 925 l 858 925 l 858 815 l 763 815 l 763 0 l 576 0 l 576 100 q 479 4 532 34 q 355 -25 426 -25 q 134 83 219 -25 q 50 365 50 191 q 135 651 50 541 q 352 762 220 762 q 479 732 423 762 q 572 645 535 702 l 572 815 l 352 815 l 352 925 l 572 925 l 572 999 l 763 999 m 247 373 q 288 203 247 262 q 410 145 330 145 q 530 203 489 145 q 572 373 572 261 q 528 534 572 477 q 406 591 485 591 q 289 532 332 591 q 247 373 247 474 "},"}":{"x_min":97,"x_max":589,"ha":694,"o":"m 97 1002 l 143 1002 q 263 993 217 1002 q 339 968 308 985 q 394 905 378 946 q 410 771 410 865 l 410 600 q 444 468 410 507 q 561 429 479 429 q 574 430 565 429 q 589 431 584 431 l 589 289 l 563 289 q 444 251 479 289 q 410 119 410 213 l 410 -50 q 394 -187 410 -147 q 339 -248 378 -226 q 261 -273 307 -265 q 148 -281 216 -281 q 123 -280 140 -281 q 97 -280 106 -280 l 97 -138 q 114 -138 103 -138 q 128 -139 124 -139 q 221 -113 197 -139 q 246 -4 246 -87 l 246 157 q 276 300 246 258 q 386 359 306 342 q 276 420 306 377 q 246 562 246 462 l 246 726 q 221 835 246 809 q 128 861 197 861 q 114 860 124 861 q 97 860 103 860 l 97 1002 "},"â":{"x_min":47,"x_max":735,"ha":781,"o":"m 508 91 q 410 4 471 34 q 270 -26 350 -26 q 105 35 163 -26 q 47 208 47 96 q 104 368 47 313 q 295 443 162 423 q 376 454 326 448 q 502 526 502 470 q 474 590 502 571 q 381 610 446 610 q 289 586 321 610 q 257 518 257 562 l 257 508 l 73 508 l 73 521 q 153 699 73 634 q 374 764 233 764 q 611 710 529 764 q 694 555 694 656 l 694 136 q 703 67 694 90 q 735 33 712 44 l 735 0 l 530 0 q 514 42 519 19 q 508 91 509 65 m 505 363 q 394 327 456 340 q 329 313 331 313 q 256 275 277 298 q 236 213 236 253 q 262 149 236 173 q 333 125 288 125 q 459 170 413 125 q 505 293 505 215 l 505 363 m 167 825 l 299 1076 l 461 1076 l 594 825 l 498 825 l 380 972 l 261 825 l 167 825 "},"ø":{"x_min":26.1875,"x_max":814.984375,"ha":844,"o":"m 293 190 q 348 148 318 161 q 418 135 378 135 q 553 195 506 135 q 600 372 600 256 q 595 433 600 404 q 581 490 591 463 l 293 190 m 548 550 q 493 589 522 576 q 428 603 463 603 q 289 542 336 603 q 242 364 242 482 q 247 305 242 334 q 261 248 252 276 l 548 550 m 26 6 l 124 109 q 65 226 84 163 q 47 369 47 290 q 148 658 47 552 q 426 765 250 765 q 557 744 496 765 q 670 682 617 724 l 762 780 l 814 730 l 719 629 q 777 515 758 579 q 796 367 796 451 q 694 79 796 185 q 420 -26 593 -26 q 282 -6 342 -26 q 172 55 221 13 l 78 -44 l 26 6 "},"Ä":{"x_min":0,"x_max":953,"ha":953,"o":"m 474 799 l 336 374 l 613 374 l 474 799 m 355 999 l 592 999 l 953 0 l 737 0 l 669 206 l 282 206 l 216 0 l 0 0 l 355 999 m 518 1126 l 518 1293 l 671 1293 l 671 1126 l 518 1126 m 282 1126 l 282 1293 l 435 1293 l 435 1126 l 282 1126 "},"‰":{"x_min":45,"x_max":1740,"ha":1785,"o":"m 1383 225 q 1413 149 1383 180 q 1487 119 1443 119 q 1562 150 1531 119 q 1593 225 1593 181 q 1562 298 1593 267 q 1487 329 1531 329 q 1413 299 1443 329 q 1383 225 1383 269 m 1236 225 q 1309 403 1236 330 q 1488 476 1382 476 q 1666 402 1592 476 q 1740 225 1740 328 q 1666 46 1740 120 q 1488 -28 1592 -28 q 1309 45 1382 -28 q 1236 225 1236 118 m 793 225 q 823 149 793 180 q 898 119 853 119 q 972 150 941 119 q 1003 225 1003 181 q 972 298 1003 267 q 898 329 941 329 q 823 299 853 329 q 793 225 793 269 m 646 225 q 719 403 646 330 q 898 476 792 476 q 1076 402 1003 476 q 1150 225 1150 328 q 1076 46 1150 120 q 898 -28 1002 -28 q 719 45 792 -28 q 646 225 646 118 m 251 -28 l 829 971 l 939 971 l 360 -28 l 251 -28 m 192 719 q 222 644 192 674 q 296 614 252 614 q 371 644 340 614 q 402 719 402 675 q 371 793 402 762 q 296 824 340 824 q 222 793 252 824 q 192 719 192 763 m 45 718 q 118 897 45 824 q 297 971 191 971 q 475 896 401 971 q 549 718 549 822 q 475 540 549 614 q 297 467 401 467 q 117 539 190 467 q 45 718 45 611 "},"N":{"x_min":103,"x_max":926,"ha":1029,"o":"m 103 0 l 103 999 l 317 999 l 723 312 l 723 999 l 926 999 l 926 0 l 713 0 l 306 686 l 306 0 l 103 0 "},"—":{"x_min":0,"x_max":1389,"ha":1389,"o":"m 0 444 l 1389 444 l 1389 294 l 0 294 l 0 444 "},"2":{"x_min":33,"x_max":722,"ha":787,"o":"m 33 0 q 88 220 34 130 q 281 404 142 311 q 342 443 302 418 q 525 669 525 560 q 486 770 525 733 q 380 808 447 808 q 267 762 307 808 q 228 632 228 716 l 228 624 l 49 624 q 138 880 49 790 q 393 971 227 971 q 632 889 543 971 q 722 671 722 807 q 675 503 722 574 q 494 341 628 432 q 415 289 465 321 q 272 165 288 207 l 712 165 l 712 0 l 33 0 "},"ü":{"x_min":83,"x_max":743,"ha":829,"o":"m 743 737 l 743 0 l 550 0 l 550 87 q 451 6 507 33 q 326 -20 395 -20 q 143 43 204 -20 q 83 233 83 107 l 83 737 l 280 737 l 280 290 q 306 178 280 212 q 394 145 333 145 q 504 186 463 145 q 546 300 546 228 l 546 737 l 743 737 m 457 865 l 457 1032 l 610 1032 l 610 865 l 457 865 m 221 865 l 221 1032 l 374 1032 l 374 865 l 221 865 "},"":{"x_min":16,"x_max":720,"ha":810,"o":"m 527 0 l 527 999 l 720 999 l 720 0 l 527 0 m 121 0 l 121 599 l 16 599 l 16 737 l 121 737 l 121 806 q 174 957 121 909 q 342 1006 227 1006 q 386 1004 363 1006 q 436 1001 410 1003 l 436 845 l 385 845 q 326 833 340 845 q 313 788 313 821 l 313 737 l 436 737 l 436 599 l 314 599 l 314 0 l 121 0 "},"Ó":{"x_min":60,"x_max":1037,"ha":1096,"o":"m 270 498 q 343 242 270 333 q 548 151 416 151 q 755 242 681 151 q 829 498 829 333 q 755 754 829 663 q 548 846 681 846 q 343 755 416 846 q 270 498 270 664 m 60 498 q 191 882 60 740 q 547 1025 323 1025 q 904 882 771 1025 q 1037 498 1037 740 q 904 114 1037 256 q 547 -28 771 -28 q 191 114 323 -28 q 60 498 60 256 m 747 1337 l 534 1086 l 438 1086 l 571 1337 l 747 1337 "},"˜":{"x_min":132,"x_max":562,"ha":694,"o":"m 562 1043 q 509 917 544 957 q 420 877 475 877 q 394 878 406 877 q 370 884 382 880 l 311 902 q 287 908 298 906 q 266 910 276 910 q 228 897 243 910 q 206 857 214 885 l 132 857 q 182 978 148 939 q 270 1017 216 1017 q 298 1014 284 1017 q 328 1007 313 1012 l 391 989 q 409 985 399 986 q 429 984 418 984 q 465 998 450 984 q 487 1043 479 1013 l 562 1043 "},"ˇ":{"x_min":134,"x_max":561,"ha":694,"o":"m 134 1076 l 228 1076 l 347 927 l 465 1076 l 561 1076 l 428 825 l 266 825 l 134 1076 "},"Ÿ":{"x_min":-18,"x_max":879,"ha":864,"o":"m 550 0 l 345 0 l 345 372 l -18 999 l 233 999 l 447 568 l 644 999 l 879 999 l 550 372 l 550 0 m 474 1126 l 474 1293 l 627 1293 l 627 1126 l 474 1126 m 238 1126 l 238 1293 l 391 1293 l 391 1126 l 238 1126 "},"€":{"x_min":-31,"x_max":775,"ha":787,"o":"m 77 387 l -11 387 l 20 458 l 76 458 q 75 483 76 467 q 75 504 75 498 q 75 509 75 506 q 76 539 76 526 l -31 539 l 1 610 l 77 610 q 188 920 95 815 q 450 1025 282 1025 q 676 937 593 1025 q 775 683 760 850 l 583 683 q 544 815 580 767 q 446 864 508 864 q 330 798 372 864 q 283 610 287 732 l 536 610 l 503 539 l 278 539 l 278 498 l 278 458 l 467 458 l 435 387 l 283 387 q 329 200 288 265 q 444 135 371 135 q 543 183 508 135 q 583 327 578 232 l 775 327 q 676 61 760 151 q 445 -28 593 -28 q 189 77 283 -28 q 77 387 96 182 "},"ß":{"x_min":86,"x_max":783,"ha":833,"o":"m 86 0 l 86 754 q 173 936 86 867 q 406 1006 260 1006 q 638 938 554 1006 q 723 751 723 870 q 698 631 723 678 q 622 559 673 584 q 742 466 702 527 q 783 314 783 404 q 695 68 783 162 q 466 -25 607 -25 q 422 -22 446 -25 q 370 -16 398 -20 l 370 141 q 388 139 379 140 q 415 139 397 139 q 539 183 496 139 q 583 309 583 227 q 535 430 583 389 q 398 472 488 472 l 379 472 l 380 611 q 389 610 384 610 q 403 610 394 610 q 495 640 463 610 q 527 728 527 670 q 494 815 527 785 q 398 846 461 846 q 309 812 339 846 q 279 714 279 778 l 279 0 l 86 0 "},"s":{"x_min":44,"x_max":715,"ha":758,"o":"m 44 240 l 241 240 q 281 156 243 183 q 395 129 319 129 q 484 148 453 129 q 516 202 516 167 q 398 278 516 253 q 321 295 349 288 q 121 382 177 332 q 66 518 66 432 q 147 697 66 631 q 369 764 229 764 q 601 698 516 764 q 691 513 685 632 l 499 513 q 463 585 496 559 q 370 611 429 611 q 286 594 313 611 q 259 543 259 577 q 406 465 259 499 q 459 453 440 457 q 661 369 607 418 q 715 231 715 320 q 626 40 715 106 q 368 -25 537 -25 q 130 43 216 -25 q 44 231 44 111 l 44 240 "},"?":{"x_min":49,"x_max":725,"ha":775,"o":"m 297 291 q 296 311 297 298 q 295 329 295 323 q 308 428 295 389 q 349 503 321 468 q 414 562 371 528 q 470 610 457 595 q 507 665 497 640 q 518 718 518 689 q 482 819 518 783 q 381 855 446 855 q 280 811 317 855 q 240 691 243 768 l 49 691 l 49 712 q 139 939 49 854 q 383 1025 230 1025 q 632 944 539 1025 q 725 729 725 864 q 714 644 725 682 q 682 575 703 606 q 596 490 654 536 q 525 434 538 444 q 488 381 500 408 q 477 314 477 353 q 478 303 477 311 q 479 291 479 295 l 297 291 m 288 0 l 288 199 l 488 199 l 488 0 l 288 0 "},"c":{"x_min":49,"x_max":726,"ha":765,"o":"m 531 278 l 726 278 q 623 56 713 137 q 391 -25 533 -25 q 140 79 231 -25 q 49 369 49 184 q 142 659 49 554 q 398 764 235 764 q 628 687 541 764 q 725 476 714 611 l 529 476 q 487 566 520 535 q 399 598 454 598 q 290 540 326 598 q 254 367 254 482 q 291 203 254 260 q 399 146 329 146 q 487 179 454 146 q 531 278 520 212 "},"¶":{"x_min":27,"x_max":668,"ha":694,"o":"m 668 1003 l 668 928 l 591 928 l 591 0 l 487 0 l 487 928 l 380 928 l 380 0 l 276 0 l 276 532 q 94 600 162 536 q 27 766 27 664 q 99 938 27 873 q 292 1003 172 1003 l 668 1003 "},"•":{"x_min":208,"x_max":609,"ha":819,"o":"m 208 516 q 266 657 208 599 q 409 716 325 716 q 550 657 491 716 q 609 516 609 598 q 549 374 609 433 q 407 315 490 315 q 266 373 324 315 q 208 516 208 432 "},"(":{"x_min":117,"x_max":502,"ha":514,"o":"m 502 999 q 362 687 408 845 q 317 354 317 528 q 362 21 317 180 q 502 -290 408 -136 l 358 -290 q 178 35 239 -127 q 117 354 117 199 q 178 672 117 508 q 358 999 239 836 l 502 999 "},"◊":{"x_min":4,"x_max":682,"ha":686,"o":"m 343 956 l 81 402 l 343 -157 l 604 402 l 343 956 m 343 1122 l 682 402 l 343 -323 l 4 402 l 343 1122 "},"­":{"x_min":41,"x_max":422,"ha":464,"o":"m 41 277 l 41 463 l 422 463 l 422 277 l 41 277 "},":":{"x_min":110,"x_max":315,"ha":427,"o":"m 110 520 l 110 725 l 315 725 l 315 520 l 110 520 m 110 0 l 110 204 l 315 204 l 315 0 l 110 0 "},"Û":{"x_min":97,"x_max":897,"ha":996,"o":"m 97 1002 l 305 1002 l 305 374 q 351 205 305 258 q 497 152 397 152 q 645 204 599 152 q 692 374 692 257 l 692 1002 l 897 1002 l 897 352 q 794 70 897 168 q 498 -28 691 -28 q 200 69 303 -28 q 97 352 97 167 l 97 1002 m 285 1086 l 417 1337 l 579 1337 l 712 1086 l 616 1086 l 498 1233 l 379 1086 l 285 1086 "},"V":{"x_min":-7,"x_max":874,"ha":868,"o":"m 337 0 l -7 999 l 220 999 l 432 251 l 649 999 l 874 999 l 534 0 l 337 0 "}," ":{"x_min":0,"x_max":0,"ha":787},"@":{"x_min":61,"x_max":1329,"ha":1389,"o":"m 791 183 q 705 99 753 126 q 589 73 656 73 q 426 131 482 73 q 371 303 371 189 q 465 576 371 466 q 698 686 560 686 q 792 663 752 686 q 858 597 832 641 l 894 663 l 1015 663 l 915 257 q 911 242 913 250 q 910 230 910 234 q 926 194 910 206 q 975 182 943 182 q 1030 196 1001 182 q 1084 234 1059 209 q 1172 360 1142 288 q 1203 520 1203 433 q 1077 788 1203 683 q 752 893 951 893 q 574 869 657 893 q 425 801 492 846 q 248 607 310 724 q 186 353 186 491 q 326 20 186 145 q 701 -104 466 -104 q 915 -70 811 -104 q 1110 25 1020 -37 l 1166 -53 q 946 -170 1062 -131 q 703 -210 830 -210 q 464 -177 573 -210 q 270 -79 355 -144 q 113 109 165 2 q 61 352 61 216 q 96 568 61 465 q 201 755 132 671 q 442 940 301 877 q 756 1004 583 1004 q 971 973 871 1004 q 1147 885 1072 942 q 1283 723 1238 814 q 1329 517 1329 632 q 1284 310 1329 405 q 1156 149 1240 216 q 1053 90 1109 111 q 936 70 997 70 q 828 99 865 70 q 791 183 792 128 m 825 474 q 786 558 816 529 q 706 587 755 587 q 571 502 628 587 q 515 300 515 418 q 542 205 515 238 q 622 173 569 173 q 724 215 678 173 q 788 327 771 258 l 825 474 "},"¾":{"x_min":25,"x_max":1195,"ha":1223,"o":"m 1008 201 l 1008 433 l 842 201 l 1008 201 m 1006 0 l 1006 118 l 747 118 l 747 212 l 973 528 l 1125 528 l 1125 204 l 1195 204 l 1195 118 l 1125 118 l 1125 0 l 1006 0 m 261 -28 l 850 985 l 962 985 l 370 -28 l 261 -28 m 25 580 l 141 580 q 167 511 143 534 q 238 489 191 489 q 309 510 284 489 q 335 572 335 531 q 305 633 335 613 q 219 654 276 654 q 209 653 215 654 q 200 653 203 653 l 200 729 l 213 729 q 293 746 267 729 q 319 802 319 764 q 297 853 319 834 q 238 872 275 872 q 175 850 197 872 q 153 790 153 829 l 153 786 l 37 786 q 91 913 38 869 q 243 958 145 958 q 388 918 334 958 q 442 810 442 878 q 423 748 442 775 q 368 703 405 721 q 439 653 415 685 q 464 576 464 621 q 403 447 464 494 q 238 400 342 400 q 80 446 135 400 q 25 578 25 492 l 25 580 "},"i":{"x_min":90,"x_max":287,"ha":378,"o":"m 90 819 l 90 999 l 287 999 l 287 819 l 90 819 m 90 0 l 90 737 l 287 737 l 287 0 l 90 0 "},"≤":{"x_min":175,"x_max":983,"ha":1157,"o":"m 175 133 l 983 133 l 983 -1 l 175 -1 l 175 133 m 981 842 l 981 700 l 416 521 l 981 343 l 981 202 l 175 463 l 175 580 l 981 842 "},"m":{"x_min":86,"x_max":1134,"ha":1218,"o":"m 86 0 l 86 737 l 273 737 l 273 655 q 365 732 314 706 q 478 758 416 758 q 597 731 547 758 q 683 649 646 705 q 774 730 721 703 q 892 758 827 758 q 1068 692 1003 758 q 1134 515 1134 627 l 1134 0 l 939 0 l 939 474 q 910 557 939 528 q 830 587 881 587 q 738 549 772 587 q 705 446 705 511 l 705 0 l 512 0 l 512 473 q 483 557 512 527 q 405 587 455 587 q 314 549 347 587 q 281 445 281 511 l 281 0 l 86 0 "},"ž":{"x_min":24,"x_max":678,"ha":703,"o":"m 24 0 l 24 151 l 428 580 l 47 580 l 47 737 l 664 737 l 664 576 l 265 164 l 678 164 l 678 0 l 24 0 m 138 1076 l 232 1076 l 351 927 l 469 1076 l 565 1076 l 432 825 l 270 825 l 138 1076 "},"á":{"x_min":47,"x_max":735,"ha":781,"o":"m 508 91 q 410 4 471 34 q 270 -26 350 -26 q 105 35 163 -26 q 47 208 47 96 q 104 368 47 313 q 295 443 162 423 q 376 454 326 448 q 502 526 502 470 q 474 590 502 571 q 381 610 446 610 q 289 586 321 610 q 257 518 257 562 l 257 508 l 73 508 l 73 521 q 153 699 73 634 q 374 764 233 764 q 611 710 529 764 q 694 555 694 656 l 694 136 q 703 67 694 90 q 735 33 712 44 l 735 0 l 530 0 q 514 42 519 19 q 508 91 509 65 m 505 363 q 394 327 456 340 q 329 313 331 313 q 256 275 277 298 q 236 213 236 253 q 262 149 236 173 q 333 125 288 125 q 459 170 413 125 q 505 293 505 215 l 505 363 m 579 1076 l 366 825 l 270 825 l 403 1076 l 579 1076 "},"×":{"x_min":187,"x_max":989,"ha":1157,"o":"m 281 816 l 587 510 l 893 816 l 989 721 l 683 414 l 989 108 l 893 14 l 587 320 l 281 14 l 187 108 l 493 414 l 187 721 l 281 816 "},"İ":{"x_min":110,"x_max":315,"ha":427,"o":"m 110 0 l 110 999 l 315 999 l 315 0 l 110 0 m 134 1122 l 134 1297 l 294 1297 l 294 1122 l 134 1122 "},"K":{"x_min":103,"x_max":991,"ha":977,"o":"m 103 0 l 103 999 l 308 999 l 308 588 l 697 999 l 955 999 l 556 594 l 991 0 l 740 0 l 414 457 l 308 351 l 308 0 l 103 0 "},"7":{"x_min":45,"x_max":733,"ha":787,"o":"m 386 0 l 183 0 q 279 394 193 198 q 522 778 364 589 l 45 778 l 45 943 l 733 943 l 733 797 q 487 424 573 621 q 386 0 401 227 "},"¨":{"x_min":153,"x_max":542,"ha":694,"o":"m 389 865 l 389 1032 l 542 1032 l 542 865 l 389 865 m 153 865 l 153 1032 l 306 1032 l 306 865 l 153 865 "},"Y":{"x_min":-18,"x_max":879,"ha":864,"o":"m 550 0 l 345 0 l 345 372 l -18 999 l 233 999 l 447 568 l 644 999 l 879 999 l 550 372 l 550 0 "},"E":{"x_min":103,"x_max":853,"ha":907,"o":"m 103 0 l 103 999 l 828 999 l 828 825 l 306 825 l 306 613 l 783 613 l 783 442 l 306 442 l 306 184 l 853 184 l 853 0 l 103 0 "},"Ô":{"x_min":60,"x_max":1037,"ha":1096,"o":"m 270 498 q 343 242 270 333 q 548 151 416 151 q 755 242 681 151 q 829 498 829 333 q 755 754 829 663 q 548 846 681 846 q 343 755 416 846 q 270 498 270 664 m 60 498 q 191 882 60 740 q 547 1025 323 1025 q 904 882 771 1025 q 1037 498 1037 740 q 904 114 1037 256 q 547 -28 771 -28 q 191 114 323 -28 q 60 498 60 256 m 335 1086 l 467 1337 l 629 1337 l 762 1086 l 666 1086 l 548 1233 l 429 1086 l 335 1086 "},"Ï":{"x_min":19,"x_max":408,"ha":427,"o":"m 110 0 l 110 999 l 315 999 l 315 0 l 110 0 m 255 1126 l 255 1293 l 408 1293 l 408 1126 l 255 1126 m 19 1126 l 19 1293 l 172 1293 l 172 1126 l 19 1126 "},"‹":{"x_min":49,"x_max":277,"ha":329,"o":"m 49 282 l 49 455 l 277 652 l 277 490 l 137 369 l 277 248 l 277 86 l 49 282 "},"±":{"x_min":172,"x_max":985,"ha":1157,"o":"m 172 134 l 985 134 l 985 -1 l 172 -1 l 172 134 m 510 829 l 647 829 l 647 608 l 985 608 l 985 473 l 647 473 l 647 253 l 510 253 l 510 473 l 172 473 l 172 608 l 510 608 l 510 829 "},"ì":{"x_min":-9,"x_max":300,"ha":378,"o":"m 90 0 l 90 737 l 287 737 l 287 0 l 90 0 m -9 1076 l 166 1076 l 300 825 l 203 825 l -9 1076 "},"|":{"x_min":278,"x_max":418,"ha":694,"o":"m 278 1061 l 418 1061 l 418 -328 l 278 -328 l 278 1061 "},"§":{"x_min":36,"x_max":659,"ha":694,"o":"m 447 330 q 488 365 474 346 q 502 405 502 384 q 486 450 502 432 q 421 494 470 469 l 241 587 q 201 552 215 571 q 187 510 187 532 q 206 463 187 483 q 295 408 226 443 l 447 330 m 78 109 l 246 109 q 277 30 251 56 q 351 5 303 5 q 422 26 395 5 q 449 84 449 47 q 429 135 449 113 q 351 186 409 157 l 189 268 q 73 357 111 306 q 36 469 36 407 q 65 575 36 529 q 152 651 94 621 q 102 718 118 682 q 86 799 86 755 q 155 962 86 900 q 341 1025 225 1025 q 529 963 461 1025 q 599 795 596 902 l 439 795 q 412 864 437 840 q 338 888 386 888 q 273 869 296 888 q 251 818 251 851 q 277 767 251 791 q 374 711 304 744 l 489 658 q 617 566 576 617 q 659 450 659 516 q 628 343 659 388 q 539 272 597 297 q 598 195 578 237 q 618 103 618 153 q 543 -68 618 0 q 351 -137 468 -137 q 153 -74 222 -137 q 78 109 84 -12 "},"q":{"x_min":49,"x_max":762,"ha":851,"o":"m 244 373 q 285 203 244 262 q 407 145 327 145 q 527 203 486 145 q 569 373 569 261 q 525 534 569 477 q 403 591 482 591 q 286 533 329 591 q 244 373 244 475 m 762 737 l 762 -296 l 569 -296 l 569 96 q 475 4 527 34 q 353 -25 422 -25 q 133 82 217 -25 q 49 365 49 190 q 133 651 49 541 q 350 762 217 762 q 478 731 422 762 q 571 642 534 701 l 571 737 l 762 737 "},"b":{"x_min":90,"x_max":803,"ha":851,"o":"m 90 999 l 282 999 l 282 645 q 373 732 318 702 q 499 762 429 762 q 718 651 633 762 q 803 365 803 541 q 718 82 803 190 q 497 -25 633 -25 q 373 4 425 -25 q 277 100 320 34 l 277 0 l 90 0 l 90 999 m 607 373 q 564 533 607 475 q 446 591 521 591 q 325 534 368 591 q 282 373 282 477 q 323 203 282 261 q 442 145 364 145 q 564 203 522 145 q 607 373 607 262 "},"®":{"x_min":75,"x_max":1083,"ha":1157,"o":"m 505 701 l 505 539 l 572 539 q 660 557 632 539 q 688 617 688 576 q 658 680 688 660 q 565 701 628 701 l 505 701 m 369 787 l 588 787 q 768 746 708 787 q 828 626 828 706 q 795 531 828 570 q 705 478 763 492 l 830 228 l 679 228 l 572 457 l 505 457 l 505 228 l 369 228 l 369 787 m 579 918 q 419 887 492 918 q 286 799 345 857 q 191 659 224 737 q 158 498 158 581 q 189 339 158 414 q 279 205 220 263 q 416 110 339 143 q 577 78 494 78 q 735 109 659 78 q 875 201 812 141 q 967 333 934 257 q 1000 490 1000 409 q 969 655 1000 580 q 880 791 939 731 q 742 886 818 854 q 579 918 666 918 m 577 1003 q 774 964 682 1003 q 939 851 867 925 q 1046 689 1009 780 q 1083 496 1083 598 q 1045 301 1083 393 q 934 140 1007 210 q 769 30 861 68 q 577 -7 676 -7 q 384 32 476 -7 q 219 145 292 71 q 111 307 148 216 q 75 496 75 397 q 93 631 75 566 q 148 759 111 697 q 329 938 216 874 q 577 1003 441 1003 "},"L":{"x_min":103,"x_max":796,"ha":806,"o":"m 103 0 l 103 999 l 308 999 l 308 184 l 796 184 l 796 0 l 103 0 "}," ":{"x_min":0,"x_max":0,"ha":395},"∑":{"x_min":28,"x_max":968,"ha":997,"o":"m 45 999 l 932 999 l 932 819 l 336 819 l 757 381 l 335 -87 l 968 -87 l 968 -267 l 28 -267 l 28 -150 l 501 373 l 45 841 l 45 999 "},"À":{"x_min":0,"x_max":953,"ha":953,"o":"m 474 799 l 336 374 l 613 374 l 474 799 m 355 999 l 592 999 l 953 0 l 737 0 l 669 206 l 282 206 l 216 0 l 0 0 l 355 999 m 278 1337 l 453 1337 l 587 1086 l 490 1086 l 278 1337 "},"+":{"x_min":172,"x_max":985,"ha":1157,"o":"m 510 828 l 647 828 l 647 482 l 985 482 l 985 347 l 647 347 l 647 0 l 510 0 l 510 347 l 172 347 l 172 482 l 510 482 l 510 828 "},"½":{"x_min":69,"x_max":1183,"ha":1225,"o":"m 747 0 q 783 124 749 73 q 903 226 817 174 q 940 247 917 233 q 1058 375 1058 313 q 1033 431 1058 410 q 967 453 1009 453 q 896 427 921 453 q 871 353 871 401 l 871 348 l 758 348 q 814 492 758 441 q 974 543 870 543 q 1126 497 1069 543 q 1183 376 1183 452 q 1153 282 1183 322 q 1038 191 1124 242 q 988 162 1020 181 q 899 93 909 117 l 1176 93 l 1176 0 l 747 0 m 261 -28 l 850 985 l 962 985 l 370 -28 l 261 -28 m 215 415 l 215 787 l 69 787 l 69 864 l 79 864 q 195 885 159 864 q 238 958 231 907 l 336 958 l 336 415 l 215 415 "},"Ë":{"x_min":103,"x_max":853,"ha":907,"o":"m 103 0 l 103 999 l 828 999 l 828 825 l 306 825 l 306 613 l 783 613 l 783 442 l 306 442 l 306 184 l 853 184 l 853 0 l 103 0 m 508 1126 l 508 1293 l 661 1293 l 661 1126 l 508 1126 m 272 1126 l 272 1293 l 425 1293 l 425 1126 l 272 1126 "},"'":{"x_min":54,"x_max":185,"ha":239,"o":"m 54 975 l 185 975 l 185 596 l 54 596 l 54 975 "},"Š":{"x_min":57,"x_max":870,"ha":926,"o":"m 57 308 l 260 308 q 327 186 271 226 q 488 147 382 147 q 623 178 577 147 q 669 273 669 210 q 407 423 669 363 l 401 424 q 380 429 394 426 q 180 498 240 460 q 99 589 127 532 q 72 724 72 646 q 171 948 72 870 q 457 1026 270 1026 q 730 943 632 1026 q 835 710 829 860 l 638 710 q 582 820 632 782 q 439 858 532 858 q 314 826 358 858 q 271 736 271 795 q 441 618 271 657 q 513 601 487 607 q 668 557 622 573 q 747 523 713 542 q 839 433 808 489 q 870 299 870 377 q 764 57 870 143 q 468 -28 659 -28 q 172 59 279 -28 q 57 308 65 146 m 251 1337 l 345 1337 l 464 1188 l 582 1337 l 678 1337 l 545 1086 l 383 1086 l 251 1337 "},"˛":{"x_min":231,"x_max":464,"ha":694,"o":"m 425 0 q 361 -69 383 -34 q 340 -138 340 -104 q 353 -179 340 -165 q 395 -193 366 -193 l 464 -193 l 464 -311 l 392 -311 q 271 -279 312 -311 q 231 -185 231 -247 q 261 -93 231 -137 q 360 0 292 -49 l 425 0 "},"ð":{"x_min":49,"x_max":799,"ha":846,"o":"m 489 681 q 430 743 464 713 q 352 803 396 773 l 156 705 l 118 784 l 266 858 q 138 924 228 881 l 136 924 l 190 1023 q 303 982 244 1006 q 429 923 362 957 l 625 1018 l 664 941 l 512 866 q 727 636 656 764 q 799 352 799 509 q 698 75 799 175 q 422 -25 598 -25 q 148 72 247 -25 q 49 343 49 170 q 140 605 49 504 q 375 707 232 707 q 433 700 405 707 q 489 681 461 694 m 249 352 q 294 195 249 250 q 422 140 339 140 q 550 195 505 140 q 595 352 595 250 q 550 509 595 454 q 422 564 505 564 q 294 508 339 564 q 249 352 249 453 "},"ş":{"x_min":44,"x_max":715,"ha":758,"o":"m 44 240 l 241 240 q 281 156 243 184 q 395 129 319 129 q 484 148 453 129 q 516 202 516 167 q 394 278 516 252 q 321 295 348 288 q 123 381 180 330 q 66 518 66 432 q 147 697 66 631 q 369 764 229 764 q 601 698 516 764 q 691 513 685 632 l 499 513 q 463 585 496 559 q 370 611 429 611 q 286 594 313 611 q 259 543 259 577 q 430 460 259 497 q 459 453 450 455 q 661 368 607 419 q 715 225 715 318 q 632 42 715 109 q 409 -24 550 -24 l 409 -61 l 423 -61 q 539 -94 499 -61 q 580 -190 580 -127 q 535 -291 580 -256 q 407 -326 491 -326 q 319 -318 368 -326 q 219 -297 270 -311 l 219 -210 q 317 -231 272 -224 q 392 -239 362 -239 q 445 -227 428 -239 q 462 -189 462 -215 q 443 -153 462 -164 q 383 -143 425 -143 l 355 -143 l 341 -143 l 341 -24 q 118 52 193 -13 q 44 237 44 117 l 44 240 "},"ı":{"x_min":90,"x_max":287,"ha":378,"o":"m 90 0 l 90 737 l 287 737 l 287 0 l 90 0 "},"Ć":{"x_min":61,"x_max":972,"ha":1034,"o":"m 972 343 q 840 72 960 172 q 528 -28 721 -28 q 184 110 307 -28 q 61 498 61 248 q 186 889 61 753 q 547 1025 311 1025 q 849 931 738 1025 q 971 668 960 838 l 768 668 q 698 797 755 752 q 547 842 642 842 q 341 754 411 842 q 271 498 271 666 q 341 246 271 335 q 540 158 411 158 q 693 205 634 158 q 771 343 753 253 l 972 343 m 738 1337 l 525 1086 l 429 1086 l 562 1337 l 738 1337 "},"ä":{"x_min":47,"x_max":735,"ha":781,"o":"m 508 91 q 410 4 471 34 q 270 -26 350 -26 q 105 35 163 -26 q 47 208 47 96 q 104 368 47 313 q 295 443 162 423 q 376 454 326 448 q 502 526 502 470 q 474 590 502 571 q 381 610 446 610 q 289 586 321 610 q 257 518 257 562 l 257 508 l 73 508 l 73 521 q 153 699 73 634 q 374 764 233 764 q 611 710 529 764 q 694 555 694 656 l 694 136 q 703 67 694 90 q 735 33 712 44 l 735 0 l 530 0 q 514 42 519 19 q 508 91 509 65 m 505 363 q 394 327 456 340 q 329 313 331 313 q 256 275 277 298 q 236 213 236 253 q 262 149 236 173 q 333 125 288 125 q 459 170 413 125 q 505 293 505 215 l 505 363 m 422 865 l 422 1032 l 575 1032 l 575 865 l 422 865 m 186 865 l 186 1032 l 339 1032 l 339 865 l 186 865 "},"¹":{"x_min":72,"x_max":353,"ha":519,"o":"m 227 378 l 227 777 l 72 777 l 72 859 l 83 859 q 204 882 166 859 q 250 960 243 905 l 353 960 l 353 378 l 227 378 "},"£":{"x_min":45.65625,"x_max":751,"ha":787,"o":"m 47 112 q 162 216 128 168 q 197 317 197 263 q 188 372 197 343 q 165 433 180 401 l 45 433 l 45 508 l 118 508 q 75 613 89 567 q 62 699 62 659 q 150 895 62 820 q 384 970 239 970 q 631 889 541 970 q 729 660 720 808 l 542 660 q 497 777 536 736 q 391 818 459 818 q 293 784 327 818 q 259 688 259 751 q 301 558 259 652 q 324 508 316 525 l 518 508 l 518 433 l 352 433 q 361 385 358 407 q 364 345 364 363 q 333 248 364 296 q 231 134 303 199 q 311 165 275 155 q 376 175 346 175 q 472 159 411 175 q 559 143 533 143 q 626 153 593 143 q 691 187 659 164 l 751 39 q 643 -10 694 6 q 546 -28 591 -28 q 407 -1 495 -28 q 280 26 319 26 q 200 12 239 26 q 124 -28 161 -1 l 47 112 "},"W":{"x_min":11,"x_max":1285,"ha":1297,"o":"m 297 0 l 11 999 l 223 999 l 394 294 l 539 999 l 758 999 l 902 294 l 1073 999 l 1285 999 l 999 0 l 803 0 l 648 765 l 493 0 l 297 0 "},"Ğ":{"x_min":60,"x_max":985,"ha":1079,"o":"m 822 118 q 695 7 766 42 q 529 -28 624 -28 q 189 117 319 -28 q 60 499 60 263 q 189 881 60 738 q 534 1025 318 1025 q 840 935 722 1025 q 982 688 959 845 l 772 688 q 694 806 753 765 q 541 847 636 847 q 345 755 416 847 q 274 501 274 663 q 348 246 274 338 q 553 154 423 154 q 716 211 650 154 q 798 370 782 269 l 571 370 l 571 541 l 985 541 l 985 0 l 847 0 l 822 118 m 331 1314 l 414 1314 q 448 1238 418 1262 q 540 1214 478 1214 q 631 1237 601 1214 q 666 1314 661 1261 l 749 1314 q 691 1157 741 1207 q 540 1108 641 1108 q 389 1158 440 1108 q 331 1314 338 1208 "},"v":{"x_min":3,"x_max":734,"ha":736,"o":"m 269 0 l 3 737 l 222 737 l 373 208 l 525 737 l 734 737 l 470 0 l 269 0 "},">":{"x_min":179,"x_max":978,"ha":1157,"o":"m 179 809 l 978 481 l 978 346 l 179 18 l 179 166 l 786 413 l 179 660 l 179 809 "},"û":{"x_min":83,"x_max":743,"ha":829,"o":"m 743 737 l 743 0 l 550 0 l 550 87 q 451 6 507 33 q 326 -20 395 -20 q 143 43 204 -20 q 83 233 83 107 l 83 737 l 280 737 l 280 290 q 306 178 280 212 q 394 145 333 145 q 504 186 463 145 q 546 300 546 228 l 546 737 l 743 737 m 202 825 l 334 1076 l 496 1076 l 629 825 l 533 825 l 415 972 l 296 825 l 202 825 "},"Ð":{"x_min":-1.359375,"x_max":954,"ha":1015,"o":"m 308 180 l 473 180 q 681 255 616 180 q 746 498 746 330 q 685 743 746 664 q 498 823 625 823 l 308 823 l 308 602 l 527 602 l 527 472 l 308 472 l 308 180 m 107 0 l 107 472 l -1 472 l -1 602 l 107 602 l 107 999 l 499 999 q 841 875 728 999 q 954 498 954 751 q 912 256 954 360 q 792 88 871 151 q 656 20 732 41 q 442 0 580 0 l 107 0 "},"r":{"x_min":86,"x_max":511.6875,"ha":533,"o":"m 86 0 l 86 737 l 268 737 l 268 611 q 359 722 307 686 q 482 758 410 758 q 500 757 493 758 q 511 756 506 757 l 511 557 l 445 557 q 323 514 364 557 q 283 390 283 472 l 283 0 l 86 0 "},"Č":{"x_min":61,"x_max":972,"ha":1034,"o":"m 972 343 q 840 72 960 172 q 528 -28 721 -28 q 184 110 307 -28 q 61 498 61 248 q 186 889 61 753 q 547 1025 311 1025 q 849 931 738 1025 q 971 668 960 838 l 768 668 q 698 797 755 752 q 547 842 642 842 q 341 754 411 842 q 271 498 271 666 q 341 246 271 335 q 540 158 411 158 q 693 205 634 158 q 771 343 753 253 l 972 343 m 326 1337 l 420 1337 l 539 1188 l 657 1337 l 753 1337 l 620 1086 l 458 1086 l 326 1337 "},"x":{"x_min":-5,"x_max":723,"ha":717,"o":"m -5 0 l 243 376 l 5 737 l 230 737 l 361 515 l 490 737 l 708 737 l 476 379 l 723 0 l 492 0 l 355 233 l 221 0 l -5 0 "},"è":{"x_min":49,"x_max":748,"ha":791,"o":"m 541 224 l 738 224 q 617 41 708 107 q 396 -25 526 -25 q 142 82 236 -25 q 49 373 49 190 q 141 659 49 555 q 393 764 233 764 q 655 661 563 764 q 748 368 748 558 q 747 337 748 347 q 746 317 747 326 l 253 317 q 295 186 257 230 q 405 142 333 142 q 489 161 456 142 q 541 224 521 181 m 253 447 l 544 447 q 504 560 541 521 q 397 599 467 599 q 296 559 333 599 q 253 447 259 520 m 198 1076 l 373 1076 l 507 825 l 410 825 l 198 1076 "},"Ø":{"x_min":37.5,"x_max":1037,"ha":1096,"o":"m 348 235 q 436 172 387 193 q 548 151 486 151 q 755 242 681 151 q 829 498 829 333 q 816 620 829 565 q 781 715 804 674 l 348 235 m 305 304 l 734 776 q 651 828 698 811 q 548 846 605 846 q 343 755 416 846 q 270 498 270 664 q 278 389 270 437 q 305 304 286 342 m 37 15 l 161 153 q 85 309 110 223 q 60 498 60 395 q 192 882 60 740 q 547 1025 324 1025 q 720 1000 643 1025 q 860 925 796 976 l 960 1037 l 1026 978 l 921 864 q 1008 702 979 793 q 1037 498 1037 611 q 904 114 1037 257 q 547 -28 772 -28 q 365 0 446 -28 q 220 87 284 28 l 103 -44 l 37 15 "},"÷":{"x_min":171,"x_max":986,"ha":1157,"o":"m 578 250 q 650 219 620 250 q 681 146 681 189 q 650 75 681 105 q 578 46 620 46 q 506 75 536 46 q 476 146 476 104 q 506 219 476 189 q 578 250 536 250 m 171 482 l 986 482 l 986 347 l 171 347 l 171 482 m 578 783 q 650 753 620 783 q 681 681 681 723 q 650 608 681 638 q 578 579 620 579 q 506 608 536 579 q 476 681 476 638 q 506 753 476 723 q 578 783 536 783 "},"h":{"x_min":90,"x_max":749,"ha":836,"o":"m 90 0 l 90 999 l 286 999 l 286 656 q 381 731 326 706 q 505 757 436 757 q 623 734 570 757 q 708 670 675 712 q 739 607 730 643 q 749 491 749 571 l 749 478 l 749 0 l 553 0 l 553 386 q 527 558 553 523 q 437 593 502 593 q 326 551 367 593 q 286 437 286 509 l 286 0 l 90 0 "},".":{"x_min":94,"x_max":298,"ha":395,"o":"m 94 0 l 94 204 l 298 204 l 298 0 l 94 0 "},"f":{"x_min":16,"x_max":436,"ha":450,"o":"m 121 0 l 121 599 l 16 599 l 16 737 l 121 737 l 121 806 q 174 957 121 909 q 341 1006 227 1006 q 386 1004 362 1006 q 436 1001 409 1003 l 436 845 l 384 845 q 326 833 340 845 q 313 788 313 821 l 313 737 l 436 737 l 436 599 l 314 599 l 314 0 l 121 0 "},"“":{"x_min":61,"x_max":548,"ha":611,"o":"m 548 824 l 548 645 l 359 645 l 359 819 q 411 963 359 905 q 548 1025 464 1020 l 548 956 q 471 913 497 943 q 446 835 446 883 l 446 824 l 548 824 m 250 824 l 250 645 l 61 645 l 61 819 q 113 963 61 905 q 250 1025 166 1020 l 250 956 q 173 913 198 943 q 148 832 148 882 l 148 824 l 250 824 "},"A":{"x_min":0,"x_max":953,"ha":953,"o":"m 474 799 l 336 374 l 613 374 l 474 799 m 355 999 l 592 999 l 953 0 l 737 0 l 669 206 l 282 206 l 216 0 l 0 0 l 355 999 "},"O":{"x_min":60,"x_max":1037,"ha":1096,"o":"m 270 498 q 343 242 270 333 q 548 151 416 151 q 755 242 681 151 q 829 498 829 333 q 755 754 829 663 q 548 846 681 846 q 343 755 416 846 q 270 498 270 664 m 60 498 q 191 882 60 740 q 547 1025 323 1025 q 904 882 771 1025 q 1037 498 1037 740 q 904 114 1037 256 q 547 -28 771 -28 q 191 114 323 -28 q 60 498 60 256 "},"π":{"x_min":-24,"x_max":918,"ha":895,"o":"m 918 741 l 891 589 l 772 589 l 667 0 l 473 0 l 576 589 l 414 589 l 312 0 l 117 0 l 221 589 l 204 589 q 147 567 166 589 q 120 500 127 546 l -24 500 q 59 688 -4 635 q 270 741 123 741 l 918 741 "},"‘":{"x_min":86,"x_max":275,"ha":361,"o":"m 275 824 l 275 645 l 86 645 l 86 819 q 138 963 86 905 q 275 1025 191 1020 l 275 956 q 198 913 223 943 q 173 832 173 882 l 173 824 l 275 824 "},"3":{"x_min":39,"x_max":736,"ha":787,"o":"m 39 295 l 226 295 q 265 172 226 213 q 379 132 303 132 q 492 170 452 132 q 532 280 532 208 q 485 389 532 352 q 347 426 439 426 q 333 425 342 426 q 318 425 323 425 l 318 559 l 339 559 q 463 591 423 559 q 504 692 504 624 q 469 782 504 749 q 376 815 435 815 q 277 777 312 815 q 242 669 242 739 l 242 661 l 59 661 q 146 890 62 810 q 384 970 231 970 q 615 898 530 970 q 701 706 701 827 q 671 594 701 642 q 584 515 642 546 q 697 425 659 482 q 736 288 736 367 q 640 57 736 142 q 379 -28 544 -28 q 127 54 215 -28 q 39 290 39 137 l 39 295 "},"9":{"x_min":37,"x_max":740,"ha":787,"o":"m 532 633 q 490 765 532 717 q 377 814 449 814 q 271 767 309 814 q 234 636 234 720 q 273 514 234 558 q 383 470 312 470 q 493 513 453 470 q 532 633 532 556 m 536 380 q 455 329 502 346 q 352 313 409 313 q 123 399 209 313 q 37 629 37 485 q 130 876 37 782 q 377 971 224 971 q 647 848 554 971 q 740 491 740 726 q 640 105 740 239 q 356 -29 541 -29 q 149 37 227 -29 q 63 220 70 104 l 259 219 q 295 149 265 172 q 379 126 325 126 q 491 189 453 126 q 536 380 530 253 "},"l":{"x_min":93,"x_max":290,"ha":382,"o":"m 93 0 l 93 999 l 290 999 l 290 0 l 93 0 "},"":{"x_min":16,"x_max":720,"ha":811,"o":"m 527 819 l 527 999 l 720 999 l 720 819 l 527 819 m 527 0 l 527 737 l 720 737 l 720 0 l 527 0 m 121 0 l 121 599 l 16 599 l 16 737 l 121 737 l 121 805 q 174 957 121 908 q 342 1006 227 1006 q 386 1004 363 1006 q 436 1001 410 1003 l 436 845 l 385 845 q 326 833 340 845 q 313 788 313 821 l 313 737 l 436 737 l 436 599 l 314 599 l 314 0 l 121 0 "},"4":{"x_min":32,"x_max":743,"ha":787,"o":"m 446 359 l 446 774 l 182 359 l 446 359 m 442 0 l 442 209 l 32 209 l 32 379 l 390 943 l 631 943 l 631 364 l 743 364 l 743 209 l 631 209 l 631 0 l 442 0 "},"Ü":{"x_min":97,"x_max":897,"ha":996,"o":"m 97 1002 l 305 1002 l 305 374 q 351 205 305 258 q 497 152 397 152 q 645 204 599 152 q 692 374 692 257 l 692 1002 l 897 1002 l 897 352 q 794 70 897 168 q 498 -28 691 -28 q 200 69 303 -28 q 97 352 97 167 l 97 1002 m 540 1126 l 540 1293 l 693 1293 l 693 1126 l 540 1126 m 304 1126 l 304 1293 l 457 1293 l 457 1126 l 304 1126 "},"à":{"x_min":47,"x_max":735,"ha":781,"o":"m 508 91 q 410 4 471 34 q 270 -26 350 -26 q 105 35 163 -26 q 47 208 47 96 q 104 368 47 313 q 295 443 162 423 q 376 454 326 448 q 502 526 502 470 q 474 590 502 571 q 381 610 446 610 q 289 586 321 610 q 257 518 257 562 l 257 508 l 73 508 l 73 521 q 153 699 73 634 q 374 764 233 764 q 611 710 529 764 q 694 555 694 656 l 694 136 q 703 67 694 90 q 735 33 712 44 l 735 0 l 530 0 q 514 42 519 19 q 508 91 509 65 m 505 363 q 394 327 456 340 q 329 313 331 313 q 256 275 277 298 q 236 213 236 253 q 262 149 236 173 q 333 125 288 125 q 459 170 413 125 q 505 293 505 215 l 505 363 m 182 1076 l 357 1076 l 491 825 l 394 825 l 182 1076 "},"ó":{"x_min":49,"x_max":796,"ha":844,"o":"m 249 369 q 294 199 249 259 q 422 140 339 140 q 549 199 504 140 q 595 369 595 259 q 550 538 595 479 q 422 598 505 598 q 294 538 339 598 q 249 369 249 479 m 49 369 q 148 658 49 553 q 422 764 248 764 q 696 658 596 764 q 796 369 796 553 q 696 80 796 185 q 422 -25 596 -25 q 148 80 248 -25 q 49 369 49 185 m 621 1076 l 408 825 l 312 825 l 445 1076 l 621 1076 "}}}
